<svg xmlns="http://www.w3.org/2000/svg" viewBox="0 0 2338.94 1222.92"><title>grid</title><g id="Layer_2" data-name="Layer 2"><g id="Grid_default"><g id="contents"><polygon id="i_325" points="2221.34 1222.57 2275.34 1177.57 2264.34 1129.57 2190.34 1174.57 2221.34 1222.57" style="fill:#fff;stroke:#fff;stroke-miterlimit:10;stroke-width:0.25px"/><polygon id="i_324" points="2338.34 1222.57 2221.34 1222.57 2275.34 1177.57 2338.34 1222.57" style="fill:#fff;stroke:#fff;stroke-miterlimit:10;stroke-width:0.25px"/><polygon id="i_323" points="2338.34 1104.57 2338.34 1222.57 2275.34 1177.57 2338.34 1104.57" style="fill:#fff;stroke:#fff;stroke-miterlimit:10;stroke-width:0.25px"/><polygon id="i_322" points="2338.34 1104.57 2275.34 1177.57 2264.34 1129.57 2275.34 1072.57 2303.34 1077.57 2338.34 1104.57" style="fill:#fff;stroke:#fff;stroke-miterlimit:10;stroke-width:0.25px"/><polygon id="i_321" points="2275.34 1072.57 2265.34 1129.57 2190.34 1174.57 2233.34 1077.57 2275.34 1072.57" style="fill:#fff;stroke:#fff;stroke-miterlimit:10;stroke-width:0.25px"/><polygon id="i_320" points="2190.34 1174.55 2233.34 1077.57 2229.34 1069.57 2202.34 1069.57 2165.34 1088.57 2137.34 1092.57 2190.34 1174.55" style="fill:#fff;stroke:#fff;stroke-miterlimit:10;stroke-width:0.25px"/><polygon id="i_319" points="2137 1092.02 2221.34 1222.57 2112.34 1222.57 2092.34 1098.57 2137 1092.02" style="fill:#fff;stroke:#fff;stroke-miterlimit:10;stroke-width:0.25px"/><polyline id="i_318" points="2052.34 1101.57 2092.34 1098.57 2112.34 1222.57 2027.34 1222.57 2057.34 1152.57 2023.34 1101.57 2044.34 1088.57" style="fill:#fff;stroke:#fff;stroke-miterlimit:10;stroke-width:0.25px"/><polygon id="i_317" points="2023.27 1101.57 2057.34 1152.57 2027.34 1222.57 1960.34 1222.57 1984.34 1198.57 1977.34 1164.57 2015.34 1155.57 1995.34 1117.57 2023.27 1101.57" style="fill:#fff;stroke:#fff;stroke-miterlimit:10;stroke-width:0.25px"/><polygon id="i_316" points="1995.34 1117.57 2015.34 1155.57 1977.34 1164.57 1984.34 1198.57 1960.34 1222.57 1931.34 1222.57 1931.34 1127.57 1967.34 1123.57 1995.34 1117.57" style="fill:#fff;stroke:#fff;stroke-miterlimit:10;stroke-width:0.25px"/><polygon id="i_315" points="1931.79 1127.59 1931.34 1222.57 1880.34 1222.57 1880.34 1145.57 1914.34 1142.57 1914.34 1129.57 1931.79 1127.59" style="fill:#fff;stroke:#fff;stroke-miterlimit:10;stroke-width:0.25px"/><polygon id="i_314" points="1880.34 1145.71 1880.34 1222.57 1804.34 1222.57 1835.34 1185.57 1811.34 1148.57 1880.34 1145.71" style="fill:#fff;stroke:#fff;stroke-miterlimit:10;stroke-width:0.25px"/><polygon id="i_313" points="2338.34 1104.57 2303.67 1077.57 2315.34 1079.57 2335.34 1046.57 2338.34 1047.57 2338.34 1104.57" style="fill:#fff;stroke:#fff;stroke-miterlimit:10;stroke-width:0.25px"/><polygon id="i_312" points="2335.63 1046.69 2315.34 1079.57 2275.34 1073.57 2283.34 1029.57 2335.63 1046.69" style="fill:#fff;stroke:#fff;stroke-miterlimit:10;stroke-width:0.25px"/><polygon id="i_311" points="2283.69 1029.85 2275.34 1073.57 2233.34 1077.57 2229.34 1069.57 2218.34 1037.57 2264.34 1023.57 2283.69 1029.85" style="fill:#fff;stroke:#fff;stroke-miterlimit:10;stroke-width:0.25px"/><polygon id="i_310" points="2218.34 1037.85 2229.34 1069.57 2202.34 1069.57 2165.34 1088.57 2165.34 1039.57 2206.34 1041.57 2218.34 1037.85" style="fill:#fff;stroke:#fff;stroke-miterlimit:10;stroke-width:0.25px"/><polygon id="i_309" points="2165.33 1039.7 2165.34 1088.57 2092.34 1098.57 2085.34 1041.57 2165.33 1039.7" style="fill:#fff;stroke:#fff;stroke-miterlimit:10;stroke-width:0.25px"/><polygon id="i_308" points="2085.34 1041.57 2092.34 1098.57 2052.34 1101.57 2044.34 1088.57 2017.34 1041.57 2085.34 1041.57" style="fill:#fff;stroke:#fff;stroke-miterlimit:10;stroke-width:0.25px"/><polygon id="i_307" points="2017.67 1041.57 2044.34 1088.57 1997.34 1117.57 1967.34 1123.57 1977.34 1064.57 1994.34 1041.57 2017.67 1041.57" style="fill:#fff;stroke:#fff;stroke-miterlimit:10;stroke-width:0.25px"/><polygon id="i_306" points="1914.34 1129.57 1967.34 1123.57 1977.34 1064.57 1954.34 1062.57 1914.34 1070.57 1914.34 1129.57" style="fill:#fff;stroke:#fff;stroke-miterlimit:10;stroke-width:0.25px"/><polygon id="i_305" points="1914.34 1070.57 1914.34 1142.57 1849.34 1148.57 1873.34 1132.57 1860.34 1081.57 1877.34 1072.57 1914.34 1070.57" style="fill:#fff;stroke:#fff;stroke-miterlimit:10;stroke-width:0.25px"/><polygon id="i_304" points="1860.84 1082.07 1873.34 1132.57 1849.34 1148.57 1829.34 1112.57 1832.34 1067.57 1844.34 1091.57 1860.84 1082.07" style="fill:#fff;stroke:#fff;stroke-miterlimit:10;stroke-width:0.25px"/><polygon id="i_303" points="1791.34 1150.57 1849.34 1148.57 1829.34 1112.57 1791.34 1108.57 1791.34 1150.57" style="fill:#fff;stroke:#fff;stroke-miterlimit:10;stroke-width:0.25px"/><polygon id="i_302" points="1811.84 1148.57 1835.34 1185.57 1804.34 1222.57 1746.34 1222.57 1786.34 1198.57 1755.34 1150.57 1811.84 1148.57" style="fill:#fff;stroke:#fff;stroke-miterlimit:10;stroke-width:0.25px"/><polygon id="i_301" points="1755.84 1150.57 1786.34 1198.57 1746.34 1222.57 1683.34 1222.57 1718.34 1150.57 1755.84 1150.57" style="fill:#fff;stroke:#fff;stroke-miterlimit:10;stroke-width:0.25px"/><polygon id="i_300" points="1719 1150.57 1683.34 1222.57 1580.34 1222.57 1657.34 1152.57 1683.34 1150.57 1719 1150.57" style="fill:#fff;stroke:#fff;stroke-miterlimit:10;stroke-width:0.25px"/><polygon id="i_299" points="2338.34 1047.57 2264.34 1023.57 2241.34 1003.57 2338.34 1003.57 2338.34 1047.57" style="fill:#fff;stroke:#fff;stroke-miterlimit:10;stroke-width:0.25px"/><polygon id="i_298" points="2241.34 1003.57 2264.34 1023.57 2206.34 1041.57 2172.34 1040.57 2172.34 1013.57 2241.34 1003.57" style="fill:#fff;stroke:#fff;stroke-miterlimit:10;stroke-width:0.25px"/><polygon id="i_297" points="2069.34 1041.57 2172.34 1040.57 2172.34 1013.57 2155.34 1007.57 2069.34 1010.57 2069.34 1041.57" style="fill:#fff;stroke:#fff;stroke-miterlimit:10;stroke-width:0.25px"/><polygon id="i_296" points="2069.34 1010.57 2069.34 1041.57 1994.47 1041.57 2015.34 1013.57 1995.34 1012.57 2018.34 1000.57 2069.34 1010.57" style="fill:#fff;stroke:#fff;stroke-miterlimit:10;stroke-width:0.25px"/><polygon id="i_295" points="1995.34 1012.57 2015.34 1013.57 1977.34 1064.57 1954.34 1062.57 1960.34 1025.57 1969.34 1025.57 1995.34 1012.57" style="fill:#fff;stroke:#fff;stroke-miterlimit:10;stroke-width:0.25px"/><polygon id="i_294" points="1960.34 1025.57 1954.34 1062.57 1914.34 1070.57 1893.34 1038.57 1951.34 1025.57 1960.34 1025.57" style="fill:#fff;stroke:#fff;stroke-miterlimit:10;stroke-width:0.25px"/><polygon id="i_293" points="1893.65 1038.57 1914.34 1070.57 1877.34 1072.57 1844.34 1091.57 1832.34 1067.57 1880.34 1041.57 1893.65 1038.57" style="fill:#fff;stroke:#fff;stroke-miterlimit:10;stroke-width:0.25px"/><polygon id="i_292" points="1832.34 1067.57 1829.34 1112.57 1791.34 1108.57 1797.34 1093.57 1804.34 1051.57 1832.34 1067.57" style="fill:#fff;stroke:#fff;stroke-miterlimit:10;stroke-width:0.25px"/><polygon id="i_291" points="1791.34 1108.57 1791.34 1150.57 1746.34 1150.57 1743.34 1091.57 1797.34 1093.57 1791.34 1108.57" style="fill:#fff;stroke:#fff;stroke-miterlimit:10;stroke-width:0.25px"/><polygon id="i_290" points="1683.34 1150.57 1746.34 1150.57 1743.34 1091.57 1683.34 1122.57 1683.34 1150.57" style="fill:#fff;stroke:#fff;stroke-miterlimit:10;stroke-width:0.25px"/><polygon id="i_289" points="1580.34 1222.57 1657.44 1152.39 1612.34 1155.57 1580.34 1155.57 1536.34 1215.07 1580.34 1222.57" style="fill:#fff;stroke:#fff;stroke-miterlimit:10;stroke-width:0.25px"/><polygon id="i_288" points="2338.34 1003.57 2241.34 1003.57 2241.34 988.57 2233.34 966.57 2338.34 973.57 2338.34 1003.57" style="fill:#fff;stroke:#fff;stroke-miterlimit:10;stroke-width:0.25px"/><polygon id="i_287" points="2241.34 1003.57 2172.34 1013.57 2191.34 1007.57 2182.34 992.57 2241.34 988.57 2241.34 1003.57" style="fill:#fff;stroke:#fff;stroke-miterlimit:10;stroke-width:0.25px"/><polygon id="i_286" points="2182.34 992.57 2191.34 1007.57 2172.34 1013.57 2155.34 1007.57 2154.34 985.57 2182.34 992.57" style="fill:#fff;stroke:#fff;stroke-miterlimit:10;stroke-width:0.25px"/><polygon id="i_285" points="2154.34 985.57 2155.34 1007.57 2069.34 1010.57 2085.34 985.57 2154.34 985.57" style="fill:#fff;stroke:#fff;stroke-miterlimit:10;stroke-width:0.25px"/><polygon id="i_284" points="2085.34 985.57 2069.34 1010.57 2019.34 1001.57 2000.34 978.57 2085.34 973.57 2085.34 985.57" style="fill:#fff;stroke:#fff;stroke-miterlimit:10;stroke-width:0.25px"/><polygon id="i_283" points="2000.34 978.57 2019.34 1000.57 1969.34 1025.57 1964.34 1007.57 2000.34 978.57" style="fill:#fff;stroke:#fff;stroke-miterlimit:10;stroke-width:0.25px"/><polygon id="i_282" points="1964.34 1007.57 1969.34 1025.57 1951.34 1025.57 1951.34 995.57 1964.34 1007.57" style="fill:#fff;stroke:#fff;stroke-miterlimit:10;stroke-width:0.25px"/><polygon id="i_281" points="1951.34 995.57 1951.34 1025.57 1880.34 1041.57 1877.34 1018.57 1951.34 995.57" style="fill:#fff;stroke:#fff;stroke-miterlimit:10;stroke-width:0.25px"/><polygon id="i_280" points="1877.34 1018.57 1880.34 1041.57 1832.34 1067.57 1804.34 1051.57 1802.34 1023.57 1877.34 1018.57" style="fill:#fff;stroke:#fff;stroke-miterlimit:10;stroke-width:0.25px"/><polygon id="i_279" points="1804.34 1051.57 1797.34 1093.57 1743.34 1091.57 1724.34 1065.57 1737.34 1059.57 1804.34 1051.57" style="fill:#fff;stroke:#fff;stroke-miterlimit:10;stroke-width:0.25px"/><polygon id="i_278" points="1723.84 1065.47 1743.34 1091.57 1683.34 1122.57 1657.44 1100.63 1673.34 1097.57 1673.34 1087.57 1723.84 1065.47" style="fill:#fff;stroke:#fff;stroke-miterlimit:10;stroke-width:0.25px"/><polygon id="i_277" points="1683.34 1122.57 1683.34 1150.57 1612.34 1155.57 1623.34 1106.57 1657.34 1100.57 1683.34 1122.57" style="fill:#fff;stroke:#fff;stroke-miterlimit:10;stroke-width:0.25px"/><polygon id="i_276" points="1580.34 1155.57 1612.34 1155.57 1623.84 1107.09 1595.34 1112.57 1580.34 1111.57 1580.34 1155.57" style="fill:#fff;stroke:#fff;stroke-miterlimit:10;stroke-width:0.25px"/><polygon id="i_275" points="2338.34 973.57 2186.34 963.57 2287.34 924.57 2338.34 937.57 2338.34 973.57" style="fill:#fff;stroke:#fff;stroke-miterlimit:10;stroke-width:0.25px"/><polygon id="i_274" points="2233.84 966.07 2241.34 988.57 2182.34 992.57 2154.34 985.57 2155.34 958.57 2186.34 963.57 2233.84 966.07" style="fill:#fff;stroke:#fff;stroke-miterlimit:10;stroke-width:0.25px"/><polygon id="i_273" points="2084.97 973.97 2085.34 985.57 2154.34 985.57 2155.67 958.57 2094.34 950.57 2092.34 973.57 2084.97 973.97" style="fill:#fff;stroke:#fff;stroke-miterlimit:10;stroke-width:0.25px"/><polygon id="i_272" points="2094.34 950.57 2092.34 973.57 2000.34 978.57 1974.34 966.57 1969.34 956.57 2094.34 950.57" style="fill:#fff;stroke:#fff;stroke-miterlimit:10;stroke-width:0.25px"/><polygon id="i_271" points="1951.34 995.57 1964.34 1007.57 2000.34 978.57 1974.34 965.57 1969.37 956.65 1909.34 959.57 1951.34 995.57" style="fill:#fff;stroke:#fff;stroke-miterlimit:10;stroke-width:0.25px"/><polygon id="i_270" points="1909.34 959.57 1951.34 995.57 1877.34 1018.57 1774.34 1025.57 1824.34 973.57 1909.34 959.57" style="fill:#fff;stroke:#fff;stroke-miterlimit:10;stroke-width:0.25px"/><polygon id="i_269" points="1802.28 1023.67 1804.34 1051.57 1737.34 1059.57 1737.34 1031.57 1774.34 1025.57 1802.28 1023.67" style="fill:#fff;stroke:#fff;stroke-miterlimit:10;stroke-width:0.25px"/><polygon id="i_268" points="1737.74 1031.46 1737.34 1059.57 1673.34 1087.57 1641.34 1070.57 1687.34 1039.57 1737.74 1031.46" style="fill:#fff;stroke:#fff;stroke-miterlimit:10;stroke-width:0.25px"/><polygon id="i_267" points="1673.34 1087.57 1673.34 1097.57 1595.34 1112.57 1580.34 1111.57 1551.34 1089.57 1584.34 1034.57 1641.34 1070.57 1673.34 1087.57" style="fill:#fff;stroke:#fff;stroke-miterlimit:10;stroke-width:0.25px"/><polygon id="i_266" points="2338.34 937.57 2287.34 924.57 2287.34 890.57 2338.34 890.57 2338.34 937.57" style="fill:#fff;stroke:#fff;stroke-miterlimit:10;stroke-width:0.25px"/><polygon id="i_265" points="2186.34 924.57 2287.34 924.57 2287.34 890.57 2191.34 890.57 2186.34 924.57" style="fill:#fff;stroke:#fff;stroke-miterlimit:10;stroke-width:0.25px"/><polygon id="i_264" points="2287.34 924.57 2186.34 963.57 2094.34 950.57 2186.34 924.57 2287.34 924.57" style="fill:#fff;stroke:#fff;stroke-miterlimit:10;stroke-width:0.25px"/><polygon id="i_263" points="2186.34 924.57 2094.34 950.57 2094.34 915.57 2186.34 924.57" style="fill:#fff;stroke:#fff;stroke-miterlimit:10;stroke-width:0.25px"/><polygon id="i_262" points="1982.34 897.57 1981.34 924.57 1909.34 923.57 1909.34 959.57 2094.34 950.57 2094.34 916.52 1982.34 897.57" style="fill:#fff;stroke:#fff;stroke-miterlimit:10;stroke-width:0.25px"/><polygon id="i_261" points="1909.69 923.57 1909.34 959.57 1824.34 973.57 1814.34 929.57 1868.34 924.57 1909.69 923.57" style="fill:#fff;stroke:#fff;stroke-miterlimit:10;stroke-width:0.25px"/><polygon id="i_260" points="1824.34 973.57 1774.34 1025.57 1687.34 1039.57 1713.34 989.57 1824.34 973.57" style="fill:#fff;stroke:#fff;stroke-miterlimit:10;stroke-width:0.25px"/><polygon id="i_259" points="1579.34 1007.57 1687.34 1040.57 1713.34 989.57 1626.34 969.57 1579.34 1007.57" style="fill:#fff;stroke:#fff;stroke-miterlimit:10;stroke-width:0.25px"/><polygon id="i_258" points="1687.34 1039.57 1641.34 1070.57 1582.34 1070.57 1584.88 1033.57 1558.07 1021.28 1580.34 1006.57 1687.34 1039.57" style="fill:#fff;stroke:#fff;stroke-miterlimit:10;stroke-width:0.25px"/><polygon id="i_257" points="2338.34 890.57 2191.34 890.57 2191.34 871.57 2262.34 842.57 2338.34 861.57 2338.34 890.57" style="fill:#fff;stroke:#fff;stroke-miterlimit:10;stroke-width:0.25px"/><polygon id="i_256" points="2191.34 890.57 2187.34 924.57 2083.34 915.57 2073.34 879.57 2191.34 871.57 2191.34 890.57" style="fill:#fff;stroke:#fff;stroke-miterlimit:10;stroke-width:0.25px"/><polygon id="i_255" points="2083.34 915.57 1939.34 890.57 2073.34 879.57 2083.34 915.57" style="fill:#fff;stroke:#fff;stroke-miterlimit:10;stroke-width:0.25px"/><polygon id="i_254" points="1982.54 898.07 1981.34 924.57 1868.34 924.57 1883.34 879.57 1939.34 890.57 1982.54 898.07" style="fill:#fff;stroke:#fff;stroke-miterlimit:10;stroke-width:0.25px"/><polygon id="i_253" points="1883.35 883.44 1868.34 924.57 1797.34 931.57 1774.34 897.57 1824.34 875.57 1883.35 883.44" style="fill:#fff;stroke:#fff;stroke-miterlimit:10;stroke-width:0.25px"/><polygon id="i_252" points="1814.84 929.84 1824.34 973.57 1713.34 989.57 1713.34 950.57 1797.34 931.57 1814.84 929.84" style="fill:#fff;stroke:#fff;stroke-miterlimit:10;stroke-width:0.25px"/><polygon id="i_251" points="1713.34 950.57 1713.34 989.57 1626.34 969.57 1580.34 1006.57 1580.34 942.57 1650.34 942.57 1713.34 950.57" style="fill:#fff;stroke:#fff;stroke-miterlimit:10;stroke-width:0.25px"/><polygon id="i_250" points="2338.34 835.57 2237.34 800.57 2338.34 765.57 2338.34 835.57" style="fill:#fff;stroke:#fff;stroke-miterlimit:10;stroke-width:0.25px"/><polygon id="i_249" points="2338.34 861.57 2262.34 842.57 2237.34 800.57 2338.34 835.57 2338.34 861.57" style="fill:#fff;stroke:#fff;stroke-miterlimit:10;stroke-width:0.25px"/><polygon id="i_248" points="2150.34 814.57 2191.34 871.57 2262.34 842.57 2237.34 800.57 2150.34 814.57" style="fill:#fff;stroke:#fff;stroke-miterlimit:10;stroke-width:0.25px"/><polygon id="i_247" points="2073.34 814.57 2073.34 879.57 2191.34 871.57 2150.34 814.57 2073.34 814.57" style="fill:#fff;stroke:#fff;stroke-miterlimit:10;stroke-width:0.25px"/><polygon id="i_246" points="2073.34 879.57 1995.34 846.57 1981.34 814.57 2073.34 814.57 2073.34 879.57" style="fill:#fff;stroke:#fff;stroke-miterlimit:10;stroke-width:0.25px"/><polygon id="i_245" points="2073.34 879.57 1939.34 890.57 1995.34 846.57 2073.34 879.57" style="fill:#fff;stroke:#fff;stroke-miterlimit:10;stroke-width:0.25px"/><polygon id="i_244" points="1995.34 846.57 1939.34 890.57 1824.04 875.89 1907.34 839.57 1995.34 846.57" style="fill:#fff;stroke:#fff;stroke-miterlimit:10;stroke-width:0.25px"/><polygon id="i_243" points="1774.34 897.57 1907.34 839.57 1855.34 814.57 1774.34 866.57 1774.34 897.57" style="fill:#fff;stroke:#fff;stroke-miterlimit:10;stroke-width:0.25px"/><polygon id="i_242" points="1774.34 897.57 1797.34 931.57 1713.34 950.57 1650.34 942.57 1672.34 897.57 1713.34 897.57 1774.34 897.57" style="fill:#fff;stroke:#fff;stroke-miterlimit:10;stroke-width:0.25px"/><polygon id="i_241" points="1673.34 897.07 1650.34 942.57 1580.34 942.57 1548.34 880.57 1646.34 897.57 1673.34 897.07" style="fill:#fff;stroke:#fff;stroke-miterlimit:10;stroke-width:0.25px"/><polygon id="i_240" points="2221.84 736.07 2237.34 800.57 2338.34 768.57 2338.34 729.57 2271.34 738.57 2221.84 736.07" style="fill:#fff;stroke:#fff;stroke-miterlimit:10;stroke-width:0.25px"/><polygon id="i_239" points="2135.54 717.57 2063.34 764.57 2150.34 814.57 2237.34 800.57 2222.34 735.57 2172.34 733.57 2135.54 717.57" style="fill:#fff;stroke:#fff;stroke-miterlimit:10;stroke-width:0.25px"/><polygon id="i_238" points="2150.34 814.57 1981.34 814.57 2064.34 764.57 2150.34 814.57" style="fill:#fff;stroke:#fff;stroke-miterlimit:10;stroke-width:0.25px"/><polygon id="i_237" points="1907.34 765.57 1981.34 814.57 2063.34 765.57 1999.34 719.57 1907.34 765.57" style="fill:#fff;stroke:#fff;stroke-miterlimit:10;stroke-width:0.25px"/><polygon id="i_236" points="1981.34 814.57 1995.34 846.57 1907.34 839.57 1855.34 814.57 1907.34 765.57 1981.34 814.57" style="fill:#fff;stroke:#fff;stroke-miterlimit:10;stroke-width:0.25px"/><polygon id="i_235" points="1774.34 866.57 1855.34 814.57 1774.34 772.57 1774.34 866.57" style="fill:#fff;stroke:#fff;stroke-miterlimit:10;stroke-width:0.25px"/><polygon id="i_234" points="1774.34 772.57 1774.34 897.57 1713.34 897.57 1713.34 821.57 1774.34 772.57" style="fill:#fff;stroke:#fff;stroke-miterlimit:10;stroke-width:0.25px"/><polygon id="i_233" points="1646.34 897.57 1713.34 897.57 1713.34 822.57 1650.34 845.57 1687.34 866.57 1646.34 897.57" style="fill:#fff;stroke:#fff;stroke-miterlimit:10;stroke-width:0.25px"/><polygon id="i_232" points="1650.34 845.57 1687.34 866.57 1646.34 897.57 1574.34 885.57 1563.86 876.95 1536.53 856.07 1545.12 848.56 1576.63 840.56 1577.34 826.57 1650.34 845.57" style="fill:#fff;stroke:#fff;stroke-miterlimit:10;stroke-width:0.25px"/><polygon id="i_231" points="2254.34 689.57 2254.34 689.59 2186.35 669.55 2172.32 733.54 2271.32 738.59 2255.34 692.47 2271.34 738.57 2338.34 730.57 2338.34 659.57 2254.34 689.57" style="fill:#fff;stroke:#fff;stroke-miterlimit:10;stroke-width:0.25px"/><polygon id="i_230" points="2103.34 703.57 2172.34 733.57 2186.34 669.57 2114.34 628.57 2103.34 703.57" style="fill:#fff;stroke:#fff;stroke-miterlimit:10;stroke-width:0.25px"/><polygon id="i_229" points="1977.34 703.57 2063.34 765.57 2135.34 717.57 2011.34 659.57 1977.34 703.57" style="fill:#fff;stroke:#fff;stroke-miterlimit:10;stroke-width:0.25px"/><polygon id="i_228" points="1999.53 719.57 1907.34 765.57 1840.34 736.31 1877.34 719.57 1840.34 703.57 1977.34 703.57 1999.53 719.57" style="fill:#fff;stroke:#fff;stroke-miterlimit:10;stroke-width:0.25px"/><polygon id="i_227" points="1907.34 765.57 1855.34 814.57 1774.34 773.01 1793.34 757.57 1840.34 734.57 1907.34 765.57" style="fill:#fff;stroke:#fff;stroke-miterlimit:10;stroke-width:0.25px"/><polygon id="i_226" points="1793.34 757.57 1713.34 822.57 1687.34 800.57 1766.34 738.57 1793.34 757.57" style="fill:#fff;stroke:#fff;stroke-miterlimit:10;stroke-width:0.25px"/><polygon id="i_225" points="1687.34 800.57 1713.34 822.57 1650.34 845.57 1576.34 827.07 1537.41 792.59 1578.34 792.57 1687.34 800.57" style="fill:#fff;stroke:#fff;stroke-miterlimit:10;stroke-width:0.25px"/><polygon id="i_224" points="2230.34 651.57 2114.34 578.57 2114.34 628.57 2186.34 669.57 2254.34 689.57 2338.34 659.57 2230.34 651.57" style="fill:#fff;stroke:#fff;stroke-miterlimit:10;stroke-width:0.25px"/><polygon id="i_223" points="2011.34 659.57 2103.34 703.57 2114.34 628.57 2011.34 659.57" style="fill:#fff;stroke:#fff;stroke-miterlimit:10;stroke-width:0.25px"/><polygon id="i_222" points="1981.34 618.57 2011.34 659.57 1846.34 669.57 1981.34 618.57" style="fill:#fff;stroke:#fff;stroke-miterlimit:10;stroke-width:0.25px"/><polygon id="i_221" points="1840.34 703.57 1977.34 703.57 2011.34 659.57 1846.34 669.57 1840.34 703.57" style="fill:#fff;stroke:#fff;stroke-miterlimit:10;stroke-width:0.25px"/><polygon id="i_220" points="1840.34 703.57 1877.34 719.57 1792.34 758.57 1765.34 738.57 1714.34 713.57 1840.34 703.57" style="fill:#fff;stroke:#fff;stroke-miterlimit:10;stroke-width:0.25px"/><polygon id="i_219" points="1716.38 714.1 1766.34 738.57 1687.34 800.57 1578.34 792.57 1535.34 760.57 1579.34 747.57 1687.34 716.57 1716.38 714.1" style="fill:#fff;stroke:#fff;stroke-miterlimit:10;stroke-width:0.25px"/><polygon id="i_218" points="2186.34 529.57 2338.34 575.57 2338.34 492.57 2296.34 483.57 2186.34 529.57" style="fill:#fff;stroke:#fff;stroke-miterlimit:10;stroke-width:0.25px"/><polygon id="i_217" points="2338.34 659.57 2230.34 651.57 2254.34 592.57 2153.84 551.69 2186.34 529.57 2338.34 575.57 2338.34 659.57" style="fill:#fff;stroke:#fff;stroke-miterlimit:10;stroke-width:0.25px"/><polygon id="i_216" points="2114.34 578.57 2230.34 651.57 2254.34 592.57 2153.34 551.57 2114.34 578.57" style="fill:#fff;stroke:#fff;stroke-miterlimit:10;stroke-width:0.25px"/><polygon id="i_215" points="2114.34 578.57 2114.34 628.57 2011.34 659.57 1981.34 618.57 2114.34 578.57" style="fill:#fff;stroke:#fff;stroke-miterlimit:10;stroke-width:0.25px"/><polygon id="i_214" points="1833.34 578.57 1846.34 669.57 1981.34 618.57 1944.36 541.07 1911.34 578.57 1833.34 578.57" style="fill:#fff;stroke:#fff;stroke-miterlimit:10;stroke-width:0.25px"/><polygon id="i_213" points="1846.34 669.57 1840.34 703.57 1687.34 716.57 1720.34 659.57 1846.34 669.57" style="fill:#fff;stroke:#fff;stroke-miterlimit:10;stroke-width:0.25px"/><polygon id="i_212" points="1535.34 761.07 1687.34 716.57 1720.34 659.57 1580.34 669.57 1498.31 696.03 1519.39 747.57 1535.34 761.07" style="fill:#fff;stroke:#fff;stroke-miterlimit:10;stroke-width:0.25px"/><polygon id="i_211" points="2338.34 492.57 2186.34 462.57 2212.34 406.57 2309.34 330.57 2338.34 333.57 2338.34 492.57" style="fill:#fff;stroke:#fff;stroke-miterlimit:10;stroke-width:0.25px"/><polygon id="i_210" points="2095.34 450.57 2186.34 529.57 2296.34 484.28 2186.34 462.57 2095.34 450.57" style="fill:#fff;stroke:#fff;stroke-miterlimit:10;stroke-width:0.25px"/><polygon id="i_209" points="2020.34 467.57 2114.34 578.57 2186.34 529.57 2095.34 450.57 2020.34 467.57" style="fill:#fff;stroke:#fff;stroke-miterlimit:10;stroke-width:0.25px"/><polygon id="i_208" points="2114.34 578.57 1981.34 618.57 1944.34 540.57 2020.34 467.57 2114.34 578.57" style="fill:#fff;stroke:#fff;stroke-miterlimit:10;stroke-width:0.25px"/><polygon id="i_207" points="1911.34 578.57 2020.38 468.07 1868.34 503.57 1911.34 578.57" style="fill:#fff;stroke:#fff;stroke-miterlimit:10;stroke-width:0.25px"/><polygon id="i_206" points="1868.34 503.57 1911.34 578.57 1702.34 578.57 1741.34 503.57 1868.34 503.57" style="fill:#fff;stroke:#fff;stroke-miterlimit:10;stroke-width:0.25px"/><polygon id="i_205" points="1846.34 669.57 1720.34 659.57 1702.34 578.57 1833.34 578.57 1846.34 669.57" style="fill:#fff;stroke:#fff;stroke-miterlimit:10;stroke-width:0.25px"/><polygon id="i_204" points="1580.34 669.57 1720.34 659.57 1702.34 578.57 1580.34 575.57 1580.34 669.57" style="fill:#fff;stroke:#fff;stroke-miterlimit:10;stroke-width:0.25px"/><polygon id="i_203" points="2310.11 330.88 2212.34 406.57 2114.41 377.07 2128.34 321.57 2212.34 321.57 2310.11 330.88" style="fill:#fff;stroke:#fff;stroke-miterlimit:10;stroke-width:0.25px"/><polygon id="i_202" points="2095.34 450.57 2186.34 462.57 2212.34 406.57 2114.34 376.57 2095.34 450.57" style="fill:#fff;stroke:#fff;stroke-miterlimit:10;stroke-width:0.25px"/><polygon id="i_201" points="1868.34 503.57 2095.34 450.57 1965.34 397.57 1868.34 503.57" style="fill:#fff;stroke:#fff;stroke-miterlimit:10;stroke-width:0.25px"/><polygon id="i_200" points="1616.34 503.57 1868.34 503.57 1870.34 453.57 1833.34 397.57 1764.34 397.57 1616.34 503.57" style="fill:#fff;stroke:#fff;stroke-miterlimit:10;stroke-width:0.25px"/><polygon id="i_199" points="1580.34 575.57 1702.34 578.57 1741.34 503.57 1616.34 503.57 1580.34 575.57" style="fill:#fff;stroke:#fff;stroke-miterlimit:10;stroke-width:0.25px"/><polygon id="i_198" points="1580.34 575.57 1616.34 503.57 1580.34 462.57 1580.34 575.57" style="fill:#fff;stroke:#fff;stroke-miterlimit:10;stroke-width:0.25px"/><polygon id="i_197" points="2212.34 321.57 2338.34 333.57 2338.34 266.57 2247.34 266.57 2212.34 321.57" style="fill:#fff;stroke:#fff;stroke-miterlimit:10;stroke-width:0.25px"/><polygon id="i_196" points="2247.34 266.57 2212.34 321.57 2036.34 321.57 2061.34 277.57 2196.34 266.57 2247.34 266.57" style="fill:#fff;stroke:#fff;stroke-miterlimit:10;stroke-width:0.25px"/><polygon id="i_195" points="1965.34 397.57 2095.34 450.57 2128.8 321.57 2036.34 321.57 1965.34 397.57" style="fill:#fff;stroke:#fff;stroke-miterlimit:10;stroke-width:0.25px"/><polygon id="i_194" points="1868.34 503.57 2036.34 321.57 1950.34 378.57 1870.34 453.57 1868.34 503.57" style="fill:#fff;stroke:#fff;stroke-miterlimit:10;stroke-width:0.25px"/><polygon id="i_193" points="1950.34 378.57 1870.34 453.57 1833.34 397.57 1902.34 333.57 1950.34 378.57" style="fill:#fff;stroke:#fff;stroke-miterlimit:10;stroke-width:0.25px"/><polygon id="i_192" points="1902.34 333.57 1833.34 397.57 1764.34 397.57 1616.34 503.57 1580.34 462.57 1764.34 333.57 1902.34 333.57" style="fill:#fff;stroke:#fff;stroke-miterlimit:10;stroke-width:0.25px"/><polygon id="i_191" points="1580.34 462.57 1764.34 333.57 1650.34 333.57 1582.34 441.57 1580.34 462.57" style="fill:#fff;stroke:#fff;stroke-miterlimit:10;stroke-width:0.25px"/><polygon id="i_190" points="2338.34 130.57 2338.34 266.57 2196.34 266.57 2186.34 147.57 2338.34 130.57" style="fill:#fff;stroke:#fff;stroke-miterlimit:10;stroke-width:0.25px"/><polygon id="i_189" points="2061.27 277.57 2196.34 266.57 2186.34 147.57 2133.34 150.57 2061.27 277.57" style="fill:#fff;stroke:#fff;stroke-miterlimit:10;stroke-width:0.25px"/><polygon id="i_188" points="2036.34 156.57 2186.34 147.57 2071.34 73.57 2036.34 156.57" style="fill:#fff;stroke:#fff;stroke-miterlimit:10;stroke-width:0.25px"/><polygon id="i_187" points="2036.34 321.57 2133.14 150.76 2036.34 156.57 2036.34 321.57" style="fill:#fff;stroke:#fff;stroke-miterlimit:10;stroke-width:0.25px"/><polygon id="i_186" points="1949.05 83.57 2036.34 156.57 2036.34 321.57 1950.34 378.57 1902.34 333.57 1902.34 166.57 1949.05 83.57" style="fill:#fff;stroke:#fff;stroke-miterlimit:10;stroke-width:0.25px"/><rect id="i_185" x="1764.34" y="200.57" width="138" height="133" style="fill:#fff;stroke:#fff;stroke-miterlimit:10;stroke-width:0.25px"/><polygon id="i_184" points="1580.34 333.57 1764.34 333.57 1764.34 200.57 1902.34 200.57 1902.34 166.57 1720.34 166.57 1720.34 248.57 1580.34 248.57 1580.34 333.57" style="fill:#fff;stroke:#fff;stroke-miterlimit:10;stroke-width:0.25px"/><polygon id="i_183" points="1580.34 248.57 1720.34 248.57 1720.34 166.57 1650.34 140.57 1561.34 106.57 1580.34 188.57 1580.34 248.57" style="fill:#fff;stroke:#fff;stroke-miterlimit:10;stroke-width:0.25px"/><polygon id="i_182" points="2338.34 130.57 2254.34 0.57 2338.34 0.57 2338.34 130.57" style="fill:#fff;stroke:#fff;stroke-miterlimit:10;stroke-width:0.25px"/><polygon id="i_181" points="2338.34 130.57 2186.34 147.57 2254.34 0.57 2338.34 130.57" style="fill:#fff;stroke:#fff;stroke-miterlimit:10;stroke-width:0.25px"/><polygon id="i_180" points="2071.14 73.57 2186.34 147.57 2254.34 0.57 2102.34 0.57 2071.14 73.57" style="fill:#fff;stroke:#fff;stroke-miterlimit:10;stroke-width:0.25px"/><polygon id="i_179" points="2102.34 0.57 2036.34 156.57 1949.34 84.57 1998.34 0.57 2102.34 0.57" style="fill:#fff;stroke:#fff;stroke-miterlimit:10;stroke-width:0.25px"/><polygon id="i_178" points="1998.34 0.57 1902.34 166.57 1846.34 0.57 1998.34 0.57" style="fill:#fff;stroke:#fff;stroke-miterlimit:10;stroke-width:0.25px"/><polygon id="i_177" points="1720.34 166.57 1902.34 166.57 1846.34 0.57 1720.34 166.57" style="fill:#fff;stroke:#fff;stroke-miterlimit:10;stroke-width:0.25px"/><polygon id="i_176" points="1846.34 0.57 1720.34 166.57 1648.34 140.57 1720.34 0.57 1846.34 0.57" style="fill:#fff;stroke:#fff;stroke-miterlimit:10;stroke-width:0.25px"/><polygon id="i_175" points="1561.34 107.57 1648.34 140.57 1720.34 0.57 1580.34 0.57 1561.34 107.57" style="fill:#fff;stroke:#fff;stroke-miterlimit:10;stroke-width:0.25px"/><polygon id="i_174" points="1580.34 1222.57 1447.34 1222.57 1444.34 1197.57 1580.34 1222.57" style="fill:#fff;stroke:#fff;stroke-miterlimit:10;stroke-width:0.25px"/><polygon id="i_173" points="1434.34 1118.57 1444.34 1197.57 1536.34 1214.57 1580.2 1155.57 1580.34 1118.57 1434.34 1118.57" style="fill:#fff;stroke:#fff;stroke-miterlimit:10;stroke-width:0.25px"/><polygon id="i_172" points="1444.34 1197.57 1447.34 1222.57 1234.34 1222.57 1441.34 1173.57 1444.34 1197.57" style="fill:#fff;stroke:#fff;stroke-miterlimit:10;stroke-width:0.25px"/><polygon id="i_171" points="1580.34 1118.57 1331.34 1118.57 1331.34 1105.57 1442.34 1066.57 1561.34 1105.57 1580.34 1111.57 1580.34 1118.57" style="fill:#fff;stroke:#fff;stroke-miterlimit:10;stroke-width:0.25px"/><polygon id="i_170" points="1193.78 1124.17 1234.34 1222.57 1441.53 1175.42 1434.34 1118.57 1331.34 1118.57 1331.34 1104.57 1193.78 1124.17" style="fill:#fff;stroke:#fff;stroke-miterlimit:10;stroke-width:0.25px"/><polygon id="i_169" points="1234.34 1222.57 1103.34 1222.57 1042.34 1160.57 1127.34 1133.57 1194.34 1123.57 1234.34 1222.57" style="fill:#fff;stroke:#fff;stroke-miterlimit:10;stroke-width:0.25px"/><polygon id="i_168" points="1042.13 1160.43 1103.34 1222.57 864.34 1222.57 1042.13 1160.43" style="fill:#fff;stroke:#fff;stroke-miterlimit:10;stroke-width:0.25px"/><polygon id="i_167" points="1332.34 1104.57 1127.34 1133.57 1136.34 1033.57 1280.34 1027.57 1332.34 1104.57" style="fill:#fff;stroke:#fff;stroke-miterlimit:10;stroke-width:0.25px"/><polygon id="i_166" points="1023.34 1167.57 1127.34 1133.57 1136.34 1033.57 986.34 1053.57 1023.34 1167.57" style="fill:#fff;stroke:#fff;stroke-miterlimit:10;stroke-width:0.25px"/><polygon id="i_165" points="986.87 1053.95 1023.4 1167.4 863.52 1222.74 864.19 1069.74 986.87 1053.95" style="fill:#fff;stroke:#fff;stroke-miterlimit:10;stroke-width:0.25px"/><polygon id="i_164" points="1558.34 1021.57 1358.34 930.57 1442.01 850.57 1548.34 879.57 1580.77 942.57 1580.11 1007.25 1558.34 1021.57" style="fill:#fff;stroke:#fff;stroke-miterlimit:10;stroke-width:0.25px"/><polygon id="i_163" points="1279.87 1027.85 1331.83 1105.57 1442.34 1066.57 1580.34 1111.63 1551.75 1089.56 1585.34 1033.57 1341.34 922.57 1358.34 1024.57 1279.87 1027.85" style="fill:#fff;stroke:#fff;stroke-miterlimit:10;stroke-width:0.25px"/><polygon id="i_162" points="1342.34 923.82 1358.34 1024.57 1143.34 1033.57 1087.34 903.57 1204.34 865.57 1342.34 923.82" style="fill:#fff;stroke:#fff;stroke-miterlimit:10;stroke-width:0.25px"/><polygon id="i_161" points="830.34 1074.57 1143.34 1033.57 1087.34 903.57 975.34 1005.57 830.34 1005.57 830.34 1074.57" style="fill:#fff;stroke:#fff;stroke-miterlimit:10;stroke-width:0.25px"/><polygon id="i_160" points="1087.34 903.57 980.34 1005.57 827.34 1006.57 779.34 938.57 837.34 858.57 957.34 865.57 1087.34 903.57" style="fill:#fff;stroke:#fff;stroke-miterlimit:10;stroke-width:0.25px"/><polygon id="i_159" points="1412.34 778.57 1442.34 852.57 1548.5 880.91 1575.34 885.57 1537.59 855.57 1546.67 848.21 1576.93 840.58 1577.37 827.57 1538.01 792.56 1579.16 793.06 1519.35 747.57 1501.34 694.57 1466.34 686.57 1412.34 778.57" style="fill:#fff;stroke:#fff;stroke-miterlimit:10;stroke-width:0.25px"/><polygon id="i_158" points="1466.2 688.31 1412.34 778.57 1184.34 753.57 1269.34 658.57 1375.34 686.57 1425.34 679.57 1466.2 688.31" style="fill:#fff;stroke:#fff;stroke-miterlimit:10;stroke-width:0.25px"/><polygon id="i_157" points="1442.34 850.57 1358.34 930.57 1204.34 865.57 1184.34 753.57 1412.34 778.57 1442.34 850.57" style="fill:#fff;stroke:#fff;stroke-miterlimit:10;stroke-width:0.25px"/><polygon id="i_156" points="1204.34 865.57 1087.34 903.57 958.34 865.57 992.34 750.57 1184.34 753.57 1204.34 865.57" style="fill:#fff;stroke:#fff;stroke-miterlimit:10;stroke-width:0.25px"/><polygon id="i_155" points="838.34 858.57 958.34 865.57 992.34 750.57 894.34 750.57 838.34 858.57" style="fill:#fff;stroke:#fff;stroke-miterlimit:10;stroke-width:0.25px"/><polygon id="i_154" points="1588.34 711.57 1425.03 680.65 1526.34 668.57 1580.34 574.57 1588.34 711.57" style="fill:#fff;stroke:#fff;stroke-miterlimit:10;stroke-width:0.25px"/><polygon id="i_153" points="1472.34 542.57 1405.34 617.57 1526.34 668.57 1580.34 574.57 1472.34 542.57" style="fill:#fff;stroke:#fff;stroke-miterlimit:10;stroke-width:0.25px"/><polygon id="i_152" points="1526.34 668.57 1375.34 686.57 1399.34 614.57 1526.34 668.57" style="fill:#fff;stroke:#fff;stroke-miterlimit:10;stroke-width:0.25px"/><polygon id="i_151" points="1245.34 555.57 1405.34 617.57 1472.34 542.57 1342.34 537.57 1245.34 555.57" style="fill:#fff;stroke:#fff;stroke-miterlimit:10;stroke-width:0.25px"/><polygon id="i_150" points="1399.54 615.32 1375.34 686.57 1200.34 641.57 1245.34 555.57 1399.54 615.32" style="fill:#fff;stroke:#fff;stroke-miterlimit:10;stroke-width:0.25px"/><polygon id="i_149" points="1269.75 659.42 1184.34 753.57 978.34 750.57 978.34 667.57 1200.34 641.57 1269.75 659.42" style="fill:#fff;stroke:#fff;stroke-miterlimit:10;stroke-width:0.25px"/><polygon id="i_148" points="894.34 750.57 978.34 750.57 978.34 668.21 879.34 675.57 830.39 679.1 830.38 706.57 911.37 717.74 894.34 750.57" style="fill:#fff;stroke:#fff;stroke-miterlimit:10;stroke-width:0.25px"/><polygon id="i_147" points="1580.34 574.57 1472.34 542.57 1476.84 478 1533.34 511.57 1580.34 440.57 1582.34 441.82 1580.34 574.57" style="fill:#fff;stroke:#fff;stroke-miterlimit:10;stroke-width:0.25px"/><polygon id="i_146" points="1342.34 472.57 1342.34 537.57 1472.34 542.57 1477.34 478.57 1412.34 440.57 1342.34 472.57" style="fill:#fff;stroke:#fff;stroke-miterlimit:10;stroke-width:0.25px"/><polygon id="i_145" points="1245.34 555.57 1342.34 537.57 1342.34 472.57 1301.34 452.57 1245.34 482.57 1245.34 555.57" style="fill:#fff;stroke:#fff;stroke-miterlimit:10;stroke-width:0.25px"/><polygon id="i_144" points="1117.34 604.57 1200.34 641.57 1245.34 555.57 1163.34 542.57 1117.34 604.57" style="fill:#fff;stroke:#fff;stroke-miterlimit:10;stroke-width:0.25px"/><polygon id="i_143" points="1200.34 641.57 975.34 668.57 975.34 624.57 1082.34 634.57 1117.34 604.57 1200.34 641.57" style="fill:#fff;stroke:#fff;stroke-miterlimit:10;stroke-width:0.25px"/><polygon id="i_142" points="790.34 682.57 975.34 668.57 975.34 624.57 910.34 604.57 788.34 631.57 790.34 682.57" style="fill:#fff;stroke:#fff;stroke-miterlimit:10;stroke-width:0.25px"/><polygon id="i_141" points="1412.34 440.57 1342.34 472.57 1301.34 452.57 1289.34 399.57 1315.34 399.57 1412.34 440.57" style="fill:#fff;stroke:#fff;stroke-miterlimit:10;stroke-width:0.25px"/><polygon id="i_140" points="1289.5 399.57 1301.34 452.57 1245.34 482.57 1180.34 467.57 1232.34 399.57 1289.5 399.57" style="fill:#fff;stroke:#fff;stroke-miterlimit:10;stroke-width:0.25px"/><polygon id="i_139" points="1163.34 542.57 1245.34 555.57 1245.34 482.57 1180.34 467.57 1163.34 542.57" style="fill:#fff;stroke:#fff;stroke-miterlimit:10;stroke-width:0.25px"/><polygon id="i_138" points="1117.34 604.57 1163.34 542.57 1094.3 507.57 1090.34 574.57 1117.34 604.57" style="fill:#fff;stroke:#fff;stroke-miterlimit:10;stroke-width:0.25px"/><polygon id="i_137" points="1090.34 574.57 1117.34 604.57 1082.34 634.57 975.34 624.57 995.34 604.57 975.34 574.57 1090.34 574.57" style="fill:#fff;stroke:#fff;stroke-miterlimit:10;stroke-width:0.25px"/><polygon id="i_136" points="975.34 624.57 995.34 604.57 975.34 574.57 934.34 574.57 910.34 604.57 975.34 624.57" style="fill:#fff;stroke:#fff;stroke-miterlimit:10;stroke-width:0.25px"/><polygon id="i_135" points="830.34 553.57 910.34 604.57 934.34 574.57 900.34 537.57 830.34 553.57" style="fill:#fff;stroke:#fff;stroke-miterlimit:10;stroke-width:0.25px"/><polygon id="i_134" points="808.34 627.57 910.34 604.57 830.34 553.57 830.34 590.57 808.34 627.57" style="fill:#fff;stroke:#fff;stroke-miterlimit:10;stroke-width:0.25px"/><polygon id="i_133" points="1580.34 440.57 1533.34 511.57 1412.34 440.57 1496.34 422.57 1580.34 440.57" style="fill:#fff;stroke:#fff;stroke-miterlimit:10;stroke-width:0.25px"/><polygon id="i_132" points="1496.34 422.57 1412.34 440.57 1315.34 399.57 1315.34 370.57 1364.34 377.57 1496.34 422.57" style="fill:#fff;stroke:#fff;stroke-miterlimit:10;stroke-width:0.25px"/><polygon id="i_131" points="1232.34 399.57 1315.34 399.57 1315.34 370.57 1186.34 352.57 1153.34 377.57 1232.34 399.57" style="fill:#fff;stroke:#fff;stroke-miterlimit:10;stroke-width:0.25px"/><polygon id="i_130" points="1155.86 377.57 1232.34 399.57 1180.34 467.57 1099.34 422.57 1155.86 377.57" style="fill:#fff;stroke:#fff;stroke-miterlimit:10;stroke-width:0.25px"/><polygon id="i_129" points="1090.34 507.57 1163.34 542.57 1180.34 467.57 1099.34 422.57 1090.34 507.57" style="fill:#fff;stroke:#fff;stroke-miterlimit:10;stroke-width:0.25px"/><polygon id="i_128" points="934.34 574.57 1090.34 574.57 1099.34 422.42 1061.34 452.57 934.34 574.57" style="fill:#fff;stroke:#fff;stroke-miterlimit:10;stroke-width:0.25px"/><polygon id="i_127" points="1061.05 452.09 969.63 542.68 912.18 473.05 1061.05 452.09" style="fill:#fff;stroke:#fff;stroke-miterlimit:10;stroke-width:0.25px"/><polygon id="i_126" points="969.34 542.57 934.34 574.57 900.34 537.57 830.34 553.57 895.34 487.57 912.34 472.57 969.34 542.57" style="fill:#fff;stroke:#fff;stroke-miterlimit:10;stroke-width:0.25px"/><polygon id="i_125" points="895.34 487.57 830.34 553.57 830.34 541.57 780.34 461.57 829.99 460.57 895.34 487.57" style="fill:#fff;stroke:#fff;stroke-miterlimit:10;stroke-width:0.25px"/><polygon id="i_124" points="830.34 320.57 900.34 370.57 984.34 412.57 895.34 487.57 830.34 461.57 834.54 461.48 860.4 470.82 860.52 438.31 830.34 439.57 849.87 407.06 821.34 369.57 830.34 320.57" style="fill:#fff;stroke:#fff;stroke-miterlimit:10;stroke-width:0.25px"/><polygon id="i_123" points="1582.34 441.57 1496.34 422.57 1580.34 332.57 1650.34 333.32 1582.34 441.57" style="fill:#fff;stroke:#fff;stroke-miterlimit:10;stroke-width:0.25px"/><polygon id="i_122" points="1580.34 332.57 1496.34 422.57 1364.34 377.57 1392.34 320.57 1580.34 332.57" style="fill:#fff;stroke:#fff;stroke-miterlimit:10;stroke-width:0.25px"/><polygon id="i_121" points="1186.66 353.13 1364.34 377.57 1392.34 320.57 1245.34 306.57 1186.66 353.13" style="fill:#fff;stroke:#fff;stroke-miterlimit:10;stroke-width:0.25px"/><polygon id="i_120" points="1245.34 306.57 1061.34 452.57 1143.34 290.57 1245.34 306.57" style="fill:#fff;stroke:#fff;stroke-miterlimit:10;stroke-width:0.25px"/><polygon id="i_119" points="1061.34 452.57 1143.34 290.57 1061.34 320.57 1061.34 452.57" style="fill:#fff;stroke:#fff;stroke-miterlimit:10;stroke-width:0.25px"/><polygon id="i_118" points="1061.34 320.57 1061.34 452.57 995.52 461.57 912.76 472.89 984.34 412.57 1061.34 320.57" style="fill:#fff;stroke:#fff;stroke-miterlimit:10;stroke-width:0.25px"/><polygon id="i_117" points="1061.34 320.57 984.34 412.57 958.34 399.57 969.34 306.57 1061.34 320.57" style="fill:#fff;stroke:#fff;stroke-miterlimit:10;stroke-width:0.25px"/><polygon id="i_116" points="969.34 306.57 958.41 399.68 900.34 370.57 969.34 306.57" style="fill:#fff;stroke:#fff;stroke-miterlimit:10;stroke-width:0.25px"/><polygon id="i_115" points="900.34 370.57 830.34 320.57 969.34 306.57 900.34 370.57" style="fill:#fff;stroke:#fff;stroke-miterlimit:10;stroke-width:0.25px"/><polygon id="i_114" points="1453.34 220.57 1580.34 220.57 1580.34 188.57 1453.34 220.57" style="fill:#fff;stroke:#fff;stroke-miterlimit:10;stroke-width:0.25px"/><polygon id="i_113" points="1580.34 332.57 1453.34 220.57 1580.34 220.57 1580.34 332.57" style="fill:#fff;stroke:#fff;stroke-miterlimit:10;stroke-width:0.25px"/><polygon id="i_112" points="1580.34 332.57 1375.34 320.57 1453.34 220.57 1580.34 332.57" style="fill:#fff;stroke:#fff;stroke-miterlimit:10;stroke-width:0.25px"/><polygon id="i_111" points="1453.34 220.57 1375.34 320.57 1245.34 306.57 1453.34 220.57" style="fill:#fff;stroke:#fff;stroke-miterlimit:10;stroke-width:0.25px"/><polygon id="i_110" points="1453.34 220.57 1245.34 306.57 1315.34 188.57 1453.34 220.57" style="fill:#fff;stroke:#fff;stroke-miterlimit:10;stroke-width:0.25px"/><polygon id="i_109" points="1315.34 188.57 1245.34 306.57 1205.34 186.57 1315.34 188.57" style="fill:#fff;stroke:#fff;stroke-miterlimit:10;stroke-width:0.25px"/><polygon id="i_108" points="1143.34 290.57 1245.34 306.57 1205.34 186.57 1173.34 220.57 1143.34 290.57" style="fill:#fff;stroke:#fff;stroke-miterlimit:10;stroke-width:0.25px"/><polygon id="i_107" points="1061.34 320.57 1143.34 290.57 1173.34 220.57 1099.34 220.57 1061.34 320.57" style="fill:#fff;stroke:#fff;stroke-miterlimit:10;stroke-width:0.25px"/><polygon id="i_106" points="1099.34 220.57 1061.34 320.57 969.34 306.57 947.34 252.57 969.34 252.57 969.34 220.57 1099.34 220.57" style="fill:#fff;stroke:#fff;stroke-miterlimit:10;stroke-width:0.25px"/><polygon id="i_105" points="969.34 220.57 930.34 220.57 891.34 188.57 862.4 243.15 830.34 238.57 850.34 278.07 830.34 320.57 969.34 306.57 947.34 252.57 969.34 252.57 969.34 220.57" style="fill:#fff;stroke:#fff;stroke-miterlimit:10;stroke-width:0.25px"/><polygon id="i_104" points="996.67 220.57 1002.89 157.96 1072.34 178.57 1099.34 129.57 1099.34 220.57 996.67 220.57" style="fill:#fff;stroke:#fff;stroke-miterlimit:10;stroke-width:0.25px"/><polygon id="i_103" points="981.34 151.57 930.34 220.57 997.34 220.57 1003.34 157.57 981.34 151.57" style="fill:#fff;stroke:#fff;stroke-miterlimit:10;stroke-width:0.25px"/><polygon id="i_102" points="930.34 220.57 891.34 188.57 883.59 155.57 981.34 151.57 930.34 220.57" style="fill:#fff;stroke:#fff;stroke-miterlimit:10;stroke-width:0.25px"/><polygon id="i_101" points="830.34 155.57 870.17 228.49 891.34 188.57 884.34 155.57 830.34 155.57" style="fill:#fff;stroke:#fff;stroke-miterlimit:10;stroke-width:0.25px"/><polygon id="i_100" points="862.34 243.57 870.34 228.57 830.34 155.57 800.34 243.07 830.34 238.57 862.34 243.57" style="fill:#fff;stroke:#fff;stroke-miterlimit:10;stroke-width:0.25px"/><polygon id="i_99" points="1453.34 220.57 1487.34 129.57 1580.34 188.57 1453.34 220.57" style="fill:#fff;stroke:#fff;stroke-miterlimit:10;stroke-width:0.25px"/><polygon id="i_98" points="1487.34 129.57 1453.34 220.57 1315.34 188.57 1354.34 94.57 1375.34 116.57 1412.34 72.57 1418.43 95.07 1487.34 129.57" style="fill:#fff;stroke:#fff;stroke-miterlimit:10;stroke-width:0.25px"/><polygon id="i_97" points="1205.34 186.57 1315.34 188.57 1354.39 102.14 1301.34 65.57 1205.34 116.57 1205.34 186.57" style="fill:#fff;stroke:#fff;stroke-miterlimit:10;stroke-width:0.25px"/><polygon id="i_96" points="1205.34 116.57 1205.34 186.57 1173.34 220.57 1099.34 220.57 1099.34 129.57 1163.34 97.57 1133.34 65.57 1163.34 58.57 1205.34 116.57" style="fill:#fff;stroke:#fff;stroke-miterlimit:10;stroke-width:0.25px"/><polygon id="i_95" points="1163.34 97.57 1099.34 129.57 1062.47 100.8 1133.34 65.57 1163.34 97.57" style="fill:#fff;stroke:#fff;stroke-miterlimit:10;stroke-width:0.25px"/><polygon id="i_94" points="1056.34 34.57 1133.34 65.57 1062.34 101.57 1017.34 65.57 1056.34 34.57" style="fill:#fff;stroke:#fff;stroke-miterlimit:10;stroke-width:0.25px"/><polygon id="i_93" points="1017.34 65.57 981.34 151.57 1072.34 178.57 1099.34 129.57 1017.34 65.57" style="fill:#fff;stroke:#fff;stroke-miterlimit:10;stroke-width:0.25px"/><polygon id="i_92" points="938.34 89.57 992.06 125.95 1017.34 65.57 946.34 52.57 938.34 89.57" style="fill:#fff;stroke:#fff;stroke-miterlimit:10;stroke-width:0.25px"/><polygon id="i_91" points="905.34 101.57 926.34 155.57 981.34 151.57 992.34 125.57 938.34 89.57 905.34 101.57" style="fill:#fff;stroke:#fff;stroke-miterlimit:10;stroke-width:0.25px"/><polygon id="i_90" points="926.34 155.57 830.34 155.57 830.34 129.57 905.34 101.57 926.34 155.57" style="fill:#fff;stroke:#fff;stroke-miterlimit:10;stroke-width:0.25px"/><polygon id="i_89" points="1580.34 188.57 1487.34 129.57 1561.34 106.57 1580.34 188.57" style="fill:#fff;stroke:#fff;stroke-miterlimit:10;stroke-width:0.25px"/><polygon id="i_88" points="1580.34 0.57 1561.34 106.57 1487.34 129.57 1427.34 129.57 1411.74 72.06 1473.34 0.57 1580.34 0.57" style="fill:#fff;stroke:#fff;stroke-miterlimit:10;stroke-width:0.25px"/><polygon id="i_87" points="1473.34 0.57 1375.34 116.57 1301.34 65.57 1375.34 0.57 1473.34 0.57" style="fill:#fff;stroke:#fff;stroke-miterlimit:10;stroke-width:0.25px"/><polygon id="i_86" points="1301.34 65.57 1375.34 0.57 1217.34 0.57 1301.34 65.57" style="fill:#fff;stroke:#fff;stroke-miterlimit:10;stroke-width:0.25px"/><polygon id="i_85" points="1217.34 0.57 1301.34 65.57 1205.34 116.57 1163.34 58.57 1217.34 0.57" style="fill:#fff;stroke:#fff;stroke-miterlimit:10;stroke-width:0.25px"/><polygon id="i_84" points="1163.34 0.57 1163.34 58.57 1217.34 0.57 1163.34 0.57" style="fill:#fff;stroke:#fff;stroke-miterlimit:10;stroke-width:0.25px"/><polygon id="i_83" points="1163.34 0.57 1133.34 65.57 1163.34 58.57 1163.34 0.57" style="fill:#fff;stroke:#fff;stroke-miterlimit:10;stroke-width:0.25px"/><polygon id="i_82" points="1099.34 0.57 1055.2 35.23 1133.34 65.57 1163.34 0.57 1099.34 0.57" style="fill:#fff;stroke:#fff;stroke-miterlimit:10;stroke-width:0.25px"/><polygon id="i_81" points="1099.34 0.57 958.34 0.57 946.69 53.24 1017.34 65.57 1099.34 0.57" style="fill:#fff;stroke:#fff;stroke-miterlimit:10;stroke-width:0.25px"/><polygon id="i_80" points="938.34 89.57 830.34 129.57 800.34 65.57 831.34 0.57 958.34 0.57 938.34 89.57" style="fill:#fff;stroke:#fff;stroke-miterlimit:10;stroke-width:0.25px"/><polygon id="i_79" points="741.34 1222.57 733.34 1122.57 829.34 1074.1 864.34 1070.57 863.34 1222.57 741.34 1222.57" style="fill:#fff;stroke:#fff;stroke-miterlimit:10;stroke-width:0.25px"/><polygon id="i_78" points="733.34 1122.57 556.34 1122.57 565.34 1222.57 741.34 1222.57 733.34 1122.57" style="fill:#fff;stroke:#fff;stroke-miterlimit:10;stroke-width:0.25px"/><polygon id="i_77" points="402.34 1222.57 446.34 1131.57 556.34 1122.57 565.34 1222.57 402.34 1222.57" style="fill:#fff;stroke:#fff;stroke-miterlimit:10;stroke-width:0.25px"/><polygon id="i_76" points="402.34 1222.57 293.34 1222.57 345.34 1059.57 446.34 1131.57 402.34 1222.57" style="fill:#fff;stroke:#fff;stroke-miterlimit:10;stroke-width:0.25px"/><polygon id="i_75" points="294.34 1222.57 304.34 1189.57 212.34 1161.57 80.34 1159.57 80.34 1222.57 294.34 1222.57" style="fill:#fff;stroke:#fff;stroke-miterlimit:10;stroke-width:0.25px"/><polygon id="i_74" points="345.34 1059.57 446.34 1131.57 446.34 1038.57 345.34 1059.57" style="fill:#fff;stroke:#fff;stroke-miterlimit:10;stroke-width:0.25px"/><polygon id="i_73" points="304.34 1190 212.34 1161.57 212.7 1103.57 262.34 1122.57 345.34 1059.57 304.34 1190" style="fill:#fff;stroke:#fff;stroke-miterlimit:10;stroke-width:0.25px"/><polygon id="i_72" points="74.74 1073.63 80.34 1159.57 212.34 1161.57 213.34 1102.57 134.34 1073.57 74.74 1073.63" style="fill:#fff;stroke:#fff;stroke-miterlimit:10;stroke-width:0.25px"/><polygon id="i_71" points="0.34 1222.57 80.34 1222.57 80.34 1161.57 75.34 1073.57 0.34 1073.57 0.34 1222.57" style="fill:#fff;stroke:#fff;stroke-miterlimit:10;stroke-width:0.25px"/><polygon id="i_70" points="830.34 1011.07 698.34 954.57 781.84 760.71 782.2 759.79 831.34 872.57 780.34 938.07 830.34 1011.07" style="fill:#fff;stroke:#fff;stroke-miterlimit:10;stroke-width:0.25px"/><polygon id="i_69" points="733.34 1122.57 698.34 954.57 830.34 1004.57 830.34 1073.57 733.34 1122.57" style="fill:#fff;stroke:#fff;stroke-miterlimit:10;stroke-width:0.25px"/><polygon id="i_68" points="698.34 954.57 556.34 1122.57 733.34 1122.57 698.34 954.57" style="fill:#fff;stroke:#fff;stroke-miterlimit:10;stroke-width:0.25px"/><polygon id="i_67" points="556.34 1122.57 446.34 1131.57 446.34 1038.57 509.34 1008.57 556.34 1122.57" style="fill:#fff;stroke:#fff;stroke-miterlimit:10;stroke-width:0.25px"/><polygon id="i_66" points="358.34 995.57 345.34 1059.57 446.34 1038.57 509.34 1008.57 358.34 995.57" style="fill:#fff;stroke:#fff;stroke-miterlimit:10;stroke-width:0.25px"/><polygon id="i_65" points="345.34 1059.57 262.34 1122.57 134.34 1073.57 149.34 987.57 250.34 999.57 345.34 1059.57" style="fill:#fff;stroke:#fff;stroke-miterlimit:10;stroke-width:0.25px"/><polygon id="i_64" points="149.14 988.07 134.34 1073.57 0.34 1073.57 0.34 978.57 74.34 979.57 149.14 988.07" style="fill:#fff;stroke:#fff;stroke-miterlimit:10;stroke-width:0.25px"/><polygon id="i_63" points="831.34 872.57 754.34 696.57 911.34 717.57 831.34 872.57" style="fill:#fff;stroke:#fff;stroke-miterlimit:10;stroke-width:0.25px"/><polygon id="i_62" points="754.34 695.57 616.34 825.57 783.34 761.57 754.34 695.57" style="fill:#fff;stroke:#fff;stroke-miterlimit:10;stroke-width:0.25px"/><polygon id="i_61" points="698.34 954.57 616.34 825.57 781.34 761.57 698.34 954.57" style="fill:#fff;stroke:#fff;stroke-miterlimit:10;stroke-width:0.25px"/><polygon id="i_60" points="591.8 1080.57 533.1 849.57 616.34 825.57 698.34 954.57 591.8 1080.57" style="fill:#fff;stroke:#fff;stroke-miterlimit:10;stroke-width:0.25px"/><polygon id="i_59" points="453.34 872.57 556.34 1122.57 592.34 1079.57 533.34 849.57 453.34 872.57" style="fill:#fff;stroke:#fff;stroke-miterlimit:10;stroke-width:0.25px"/><polygon id="i_58" points="509.22 1008.21 358.34 995.57 407.28 880.25 453.34 872.57 509.22 1008.21" style="fill:#fff;stroke:#fff;stroke-miterlimit:10;stroke-width:0.25px"/><polygon id="i_57" points="303.34 897.57 358.34 995.57 408.34 879.57 303.34 897.57" style="fill:#fff;stroke:#fff;stroke-miterlimit:10;stroke-width:0.25px"/><polygon id="i_56" points="303.34 897.57 227.34 985.57 345.34 1059.57 358.34 995.57 303.34 897.57" style="fill:#fff;stroke:#fff;stroke-miterlimit:10;stroke-width:0.25px"/><polygon id="i_55" points="250.34 999.57 74.34 979.57 100.34 887.57 250.34 999.57" style="fill:#fff;stroke:#fff;stroke-miterlimit:10;stroke-width:0.25px"/><polygon id="i_54" points="100.3 887.57 74.34 979.57 0.34 978.57 0.34 840.57 52.34 850.57 100.3 887.57" style="fill:#fff;stroke:#fff;stroke-miterlimit:10;stroke-width:0.25px"/><polygon id="i_53" points="830.34 717.57 753.34 696.57 733.34 576.57 830.34 590.57 808.42 627.49 788.34 632.57 790.34 682.57 830.56 679.28 830.34 717.57" style="fill:#fff;stroke:#fff;stroke-miterlimit:10;stroke-width:0.25px"/><polygon id="i_52" points="573.34 633.57 616.34 825.57 753.34 696.57 733.34 576.57 573.34 633.57" style="fill:#fff;stroke:#fff;stroke-miterlimit:10;stroke-width:0.25px"/><polygon id="i_51" points="616.34 825.57 478.34 731.57 486.34 657.57 573.34 633.57 616.34 825.57" style="fill:#fff;stroke:#fff;stroke-miterlimit:10;stroke-width:0.25px"/><polygon id="i_50" points="616.34 825.57 453.34 872.57 358.34 760.57 478.34 731.57 616.34 825.57" style="fill:#fff;stroke:#fff;stroke-miterlimit:10;stroke-width:0.25px"/><polygon id="i_49" points="358.34 760.57 303.34 897.57 453.34 872.57 358.34 760.57" style="fill:#fff;stroke:#fff;stroke-miterlimit:10;stroke-width:0.25px"/><polygon id="i_48" points="249.85 696.57 303.34 897.57 358.34 760.57 249.85 696.57" style="fill:#fff;stroke:#fff;stroke-miterlimit:10;stroke-width:0.25px"/><polygon id="i_47" points="135.34 772.57 303.34 897.57 250.34 696.57 135.34 772.57" style="fill:#fff;stroke:#fff;stroke-miterlimit:10;stroke-width:0.25px"/><polygon id="i_46" points="135.34 772.57 52.34 850.57 227.34 985.57 303.34 897.57 135.34 772.57" style="fill:#fff;stroke:#fff;stroke-miterlimit:10;stroke-width:0.25px"/><polygon id="i_45" points="0.34 729.57 0.34 840.57 52.34 850.57 135.34 772.57 0.34 729.57" style="fill:#fff;stroke:#fff;stroke-miterlimit:10;stroke-width:0.25px"/><polygon id="i_44" points="739.34 506.57 830.34 541.68 780.34 460.57 698.34 465.57 739.34 506.57" style="fill:#fff;stroke:#fff;stroke-miterlimit:10;stroke-width:0.25px"/><polygon id="i_43" points="630.34 522.57 733.34 576.57 830.34 591.07 830.34 541.57 739.34 506.57 698.34 465.57 591.8 451.57 630.34 522.57" style="fill:#fff;stroke:#fff;stroke-miterlimit:10;stroke-width:0.25px"/><polygon id="i_42" points="630.34 522.57 573.34 633.57 733.34 576.57 630.34 522.57" style="fill:#fff;stroke:#fff;stroke-miterlimit:10;stroke-width:0.25px"/><polygon id="i_41" points="469.4 510.57 402.34 562.57 486.34 657.57 573.34 633.57 630.34 522.57 510.34 530.57 469.4 510.57" style="fill:#fff;stroke:#fff;stroke-miterlimit:10;stroke-width:0.25px"/><polygon id="i_40" points="486.34 657.57 478.34 731.57 358.34 623.57 402.34 562.57 486.34 657.57" style="fill:#fff;stroke:#fff;stroke-miterlimit:10;stroke-width:0.25px"/><polygon id="i_39" points="358.34 623.57 358.34 760.57 478.34 731.57 358.34 623.57" style="fill:#fff;stroke:#fff;stroke-miterlimit:10;stroke-width:0.25px"/><polygon id="i_38" points="219.34 541.57 219.34 678.57 358.34 760.57 358.34 623.57 219.34 541.57" style="fill:#fff;stroke:#fff;stroke-miterlimit:10;stroke-width:0.25px"/><polygon id="i_37" points="127.34 626.48 135.34 772.57 250.34 696.57 127.34 626.48" style="fill:#fff;stroke:#fff;stroke-miterlimit:10;stroke-width:0.25px"/><polygon id="i_36" points="0.34 554.57 0.34 729.57 135.34 772.57 127.34 626.57 0.34 554.57" style="fill:#fff;stroke:#fff;stroke-miterlimit:10;stroke-width:0.25px"/><polygon id="i_35" points="698.34 402.57 698.34 465.57 833.84 461.39 860.34 470.57 860.34 437.57 830.79 439.36 698.34 402.57" style="fill:#fff;stroke:#fff;stroke-miterlimit:10;stroke-width:0.25px"/><polygon id="i_34" points="532.34 385.57 502.34 439.57 698.34 465.57 698.34 402.57 532.34 385.57" style="fill:#fff;stroke:#fff;stroke-miterlimit:10;stroke-width:0.25px"/><polygon id="i_33" points="502.34 439.57 514.34 536.57 630.34 522.57 592.34 451.57 502.34 439.57" style="fill:#fff;stroke:#fff;stroke-miterlimit:10;stroke-width:0.25px"/><polygon id="i_32" points="514.34 536.57 336.34 433.57 502.34 439.57 514.34 536.57" style="fill:#fff;stroke:#fff;stroke-miterlimit:10;stroke-width:0.25px"/><polygon id="i_31" points="336.34 433.57 295.34 510.57 402.34 562.57 469.34 510.57 336.34 433.57" style="fill:#fff;stroke:#fff;stroke-miterlimit:10;stroke-width:0.25px"/><polygon id="i_30" points="262.1 411.57 219.34 541.57 358.34 623.57 402.34 562.57 295.34 510.57 322.34 460.57 262.1 411.57" style="fill:#fff;stroke:#fff;stroke-miterlimit:10;stroke-width:0.25px"/><polygon id="i_29" points="219.34 609.32 100.34 517.57 159.34 455.57 234.34 497.57 219.34 541.57 219.34 609.32" style="fill:#fff;stroke:#fff;stroke-miterlimit:10;stroke-width:0.25px"/><polygon id="i_28" points="219.34 678.57 0.34 554.57 0.34 481.57 100.34 517.57 219.34 609.57 219.34 678.57" style="fill:#fff;stroke:#fff;stroke-miterlimit:10;stroke-width:0.25px"/><polygon id="i_27" points="831.34 318.57 792.34 319.57 830.34 236.57 850.34 278.07 831.34 318.57" style="fill:#fff;stroke:#fff;stroke-miterlimit:10;stroke-width:0.25px"/><polygon id="i_26" points="726.21 322.35 698.34 402.57 736.83 413.36 830.34 439.57 850.34 406.73 821.56 368.03 831.34 318.57 792.34 319.6 726.21 322.35" style="fill:#fff;stroke:#fff;stroke-miterlimit:10;stroke-width:0.25px"/><polygon id="i_25" points="507.34 331.57 532.34 385.57 698.34 402.57 727.34 321.57 507.34 331.57" style="fill:#fff;stroke:#fff;stroke-miterlimit:10;stroke-width:0.25px"/><polygon id="i_24" points="367.84 380.29 336.34 433.57 502.34 439.57 532.34 385.57 367.84 380.29" style="fill:#fff;stroke:#fff;stroke-miterlimit:10;stroke-width:0.25px"/><polygon id="i_23" points="219.34 376.57 321.96 460.57 368.34 379.57 219.34 376.57" style="fill:#fff;stroke:#fff;stroke-miterlimit:10;stroke-width:0.25px"/><polygon id="i_22" points="233.83 497.49 127.34 439.57 127.34 302.4 262.34 411.57 233.83 497.49" style="fill:#fff;stroke:#fff;stroke-miterlimit:10;stroke-width:0.25px"/><polygon id="i_21" points="159.34 456.97 100.34 517.57 0.34 481.57 0.34 368.57 127.34 385.57 127.34 439.57 159.34 456.97" style="fill:#fff;stroke:#fff;stroke-miterlimit:10;stroke-width:0.25px"/><polygon id="i_20" points="830.34 154.57 717.34 251.57 792.34 319.57 830.34 236.57 800.34 243.57 830.34 154.57" style="fill:#fff;stroke:#fff;stroke-miterlimit:10;stroke-width:0.25px"/><polygon id="i_19" points="792.34 319.57 507.34 331.57 573.34 259.57 651.34 251.57 717.34 251.57 792.34 319.57" style="fill:#fff;stroke:#fff;stroke-miterlimit:10;stroke-width:0.25px"/><polygon id="i_18" points="321.34 331.57 345.34 379.57 532.34 385.57 507.34 331.57 321.34 331.57" style="fill:#fff;stroke:#fff;stroke-miterlimit:10;stroke-width:0.25px"/><polygon id="i_17" points="321.34 190.57 321.34 331.57 507.34 331.57 462.34 187.57 321.34 190.57" style="fill:#fff;stroke:#fff;stroke-miterlimit:10;stroke-width:0.25px"/><polygon id="i_16" points="345.34 379.57 219.34 376.57 148.34 319.57 174.62 259.57 244.34 319.57 321.34 331.57 345.34 379.57" style="fill:#fff;stroke:#fff;stroke-miterlimit:10;stroke-width:0.25px"/><polygon id="i_15" points="0.34 369.24 127.34 385.57 127.34 302.57 0.34 198.57 0.34 369.24" style="fill:#fff;stroke:#fff;stroke-miterlimit:10;stroke-width:0.25px"/><polygon id="i_14" points="717.34 251.57 717.34 77.57 830.34 154.57 717.34 251.57" style="fill:#fff;stroke:#fff;stroke-miterlimit:10;stroke-width:0.25px"/><polygon id="i_13" points="610.76 67.07 651.34 251.57 717.34 251.57 717.34 77.57 610.76 67.07" style="fill:#fff;stroke:#fff;stroke-miterlimit:10;stroke-width:0.25px"/><polygon id="i_12" points="610.34 66.57 514.34 88.57 573.34 259.57 651.34 251.57 610.34 66.57" style="fill:#fff;stroke:#fff;stroke-miterlimit:10;stroke-width:0.25px"/><polygon id="i_11" points="507.34 331.57 432.34 93.57 528.34 128.57 573.34 259.57 507.34 331.57" style="fill:#fff;stroke:#fff;stroke-miterlimit:10;stroke-width:0.25px"/><polygon id="i_10" points="321.34 93.57 321.34 190.57 461.96 187.57 432.34 93.57 321.34 93.57" style="fill:#fff;stroke:#fff;stroke-miterlimit:10;stroke-width:0.25px"/><polygon id="i_9" points="282.34 93.57 244.34 319.57 321.34 331.57 321.34 93.57 282.34 93.57" style="fill:#fff;stroke:#fff;stroke-miterlimit:10;stroke-width:0.25px"/><polygon id="i_8" points="244.34 319.57 0.34 109.57 135.34 109.57 269.34 173.57 244.34 319.57" style="fill:#fff;stroke:#fff;stroke-miterlimit:10;stroke-width:0.25px"/><polygon id="i_7" points="148.34 319.57 0.34 198.57 0.34 109.57 174.34 259.57 148.34 319.57" style="fill:#fff;stroke:#fff;stroke-miterlimit:10;stroke-width:0.25px"/><polygon id="i_6" points="830.34 154.57 717.34 77.57 831.34 0.57 800.9 66.07 830.95 130.37 830.34 154.57" style="fill:#fff;stroke:#fff;stroke-miterlimit:10;stroke-width:0.25px"/><polygon id="i_5" points="605.26 0.57 565.34 64.57 717.34 77.57 831.34 0.57 605.26 0.57" style="fill:#fff;stroke:#fff;stroke-miterlimit:10;stroke-width:0.25px"/><polygon id="i_4" points="453.27 0.57 432.34 93.57 528.14 128.57 514.34 88.57 610.34 66.57 565.34 64.57 605.34 0.57 453.27 0.57" style="fill:#fff;stroke:#fff;stroke-miterlimit:10;stroke-width:0.25px"/><polygon id="i_3" points="289.78 0.57 282.34 93.57 432.34 93.57 453.34 0.57 289.78 0.57" style="fill:#fff;stroke:#fff;stroke-miterlimit:10;stroke-width:0.25px"/><polygon id="i_2" points="159.29 0.57 135.34 109.57 268.8 174.07 282.34 93.57 290.34 0.57 159.29 0.57" style="fill:#fff;stroke:#fff;stroke-miterlimit:10;stroke-width:0.25px"/><polygon id="i_1" points="0.34 0.57 0.34 109.57 135.34 109.57 159.34 0.57 0.34 0.57" style="fill:#fff;stroke:#fff;stroke-miterlimit:10;stroke-width:0.25px"/></g></g></g></svg>