# Blender v2.79 (sub 0) OBJ File: 'stage_platform.blend'
# www.blender.org
mtllib stage_platform.mtl
o logo_stage_CUBezierCurve.001
v -2.247596 18.549074 -11.218603
v -2.247596 14.448360 -11.218604
v -0.535323 14.448360 -12.535038
v -0.535323 18.549074 -12.535037
v -8.262378 18.549068 18.825714
v -8.262378 14.448353 18.825712
v -10.777775 14.448353 15.428897
v -10.777775 18.549070 15.428895
v 6.442430 18.549074 -10.506357
v 6.442430 14.448360 -10.506358
v 6.981450 14.448360 -9.254852
v 6.981450 18.549074 -9.254854
v 0.955148 14.448360 -13.342484
v 0.955148 18.549074 -13.342484
v -12.263990 14.448354 11.361012
v -12.263990 18.549070 11.361013
v 7.470432 14.448356 -7.924075
v 7.470432 18.549074 -7.924076
v 18.043613 18.549084 18.724596
v 18.043613 14.448373 18.724594
v 13.252812 14.448367 21.750256
v 13.252812 18.549084 21.750254
v 2.245282 14.448360 -13.694651
v 2.245282 18.549078 -13.694654
v -12.535335 14.448354 6.736144
v -12.535335 18.549065 6.736143
v 7.930852 14.448359 -6.567717
v 7.930852 18.549074 -6.567719
v 8.377001 14.448362 23.420258
v 8.377001 18.549080 23.420259
v 3.356557 14.448360 -13.645254
v 3.356557 18.549078 -13.645255
v -11.406108 14.448355 1.668383
v -11.406108 18.549072 1.668383
v 3.601876 14.448362 24.136265
v 3.601876 18.549074 23.801172
v 4.310441 14.448360 -13.248026
v 4.310441 18.549074 -13.248025
v -8.690609 14.448356 -3.728182
v -8.690609 18.549072 -3.728181
v -0.886857 14.448357 23.149723
v -0.886857 18.549074 23.149725
v 5.128398 14.448360 -12.556654
v 5.128398 18.549074 -12.556655
v -4.203149 14.448357 -9.339469
v -4.203149 18.549074 -9.339468
v -4.903502 14.448357 21.437353
v -4.903502 18.549068 21.437353
v 5.831906 14.448360 -11.624855
v 5.831906 18.549074 -11.624854
v -3.813817 18.706734 -17.995811
v -1.188195 18.706734 -20.014444
v -1.188195 14.568155 -20.014446
v -3.813817 14.568155 -17.995815
v -11.655085 18.602867 26.952240
v -16.368519 18.706722 22.865965
v -16.368519 14.568145 22.865963
v -11.655085 14.744918 26.952238
v 9.511623 18.706732 -16.903639
v 10.338163 18.706732 -14.984559
v 10.338163 14.568155 -14.984560
v 9.511623 14.568155 -16.903639
v 1.097325 18.706734 -21.252590
v 1.097325 14.568155 -21.252592
v -18.647505 18.706720 16.628208
v -18.647505 14.568141 16.628206
v 11.087983 18.706728 -12.943919
v 11.087983 14.568150 -12.943920
v 3.075639 18.706734 -21.792625
v 3.075639 14.568155 -21.792627
v -19.589235 18.706720 9.536330
v -19.589235 14.568147 9.536329
v 11.794003 18.706728 -10.864052
v 11.794003 14.568150 -10.864052
v 4.779690 18.706734 -21.716867
v 4.779690 14.568155 -21.716869
v -17.857647 18.706722 1.765349
v -17.857647 14.568143 1.765348
v 6.242387 18.706734 -21.107752
v 6.242387 14.568155 -21.107754
v -13.693655 18.706728 -6.509857
v -13.693655 14.568149 -6.509858
v 7.496662 18.706734 -20.047586
v 7.496662 14.568155 -20.047588
v -6.812509 18.706732 -15.114297
v -6.812509 14.568151 -15.114298
v 8.575435 18.706734 -18.618761
v 8.575435 14.568155 -18.618761
v -12.534137 18.580196 1.332589
v -9.712534 18.581274 -4.274764
v -12.671730 18.674526 -5.963273
v -16.729618 18.675602 2.101144
v -1.220871 14.468619 -13.414562
v -3.057524 14.470281 -12.002458
v -3.003888 14.546231 -17.211962
v -0.502648 14.547896 -19.134918
v 13.803805 14.479502 22.710127
v 18.708452 14.461037 19.613106
v 22.227968 14.557868 24.414103
v 17.149797 14.677020 27.649609
v -5.110507 18.579981 -10.029373
v -5.905149 18.675825 -14.424392
v 0.477986 14.466745 -14.334938
v 1.574488 14.549775 -20.260139
v 8.682727 14.474023 24.464333
v 10.436172 14.710465 30.631922
v -3.057398 18.577921 -12.002339
v -3.004014 18.677889 -17.212078
v 2.100847 14.465322 -14.777958
v 3.220074 14.551201 -20.709326
v 3.557662 14.461097 25.232996
v 4.819621 14.401335 31.227739
v -1.220779 18.575731 -13.414449
v -0.502740 18.680077 -19.135036
v 3.640171 14.465060 -14.709534
v 4.496072 14.551463 -20.652592
v 18.708452 18.564312 19.613108
v 13.803725 18.585339 22.709982
v 17.149815 18.810518 27.649788
v 22.227913 18.693884 24.414139
v -1.278504 14.461208 24.170097
v -1.417762 14.556306 30.738577
v 0.478039 18.573269 -14.334832
v 1.574435 18.682545 -20.260244
v 4.972662 14.466237 -14.154623
v 5.580166 14.550279 -20.201155
v 8.640304 18.582373 24.478613
v 10.436368 18.840347 30.632135
v -5.546969 14.474763 22.350145
v -7.315603 14.543682 28.224434
v 2.100861 18.571390 -14.777860
v 3.220059 18.684422 -20.709419
v 6.025427 14.468544 -13.264725
v 6.599635 14.547973 -19.339520
v 3.559973 18.570339 24.884153
v 4.819782 18.630335 31.227913
v -9.149391 14.475574 19.549101
v -10.923540 14.717430 26.102776
v 3.640145 18.571047 -14.709437
v 4.496098 18.684765 -20.652685
v 6.850144 14.471182 -12.172287
v 7.557197 14.545329 -18.071321
v -1.235841 18.568596 24.188169
v -1.417779 18.687195 30.926113
v -11.845276 14.466334 15.908829
v -15.342891 14.547167 22.271584
v 4.972592 18.572599 -14.154528
v 5.580236 18.683208 -20.201244
v 7.520801 14.473458 -10.943512
v 8.433252 14.543058 -16.466486
v -5.547125 18.564251 22.350286
v -7.314647 18.690832 28.224688
v -13.432859 14.467588 11.563416
v -17.491310 14.549051 16.391104
v 6.025309 18.575636 -13.264634
v 6.599753 18.680178 -19.339611
v 8.089665 14.475035 -9.622607
v 9.229948 14.541476 -14.616804
v -9.149545 18.563536 19.549284
v -10.923135 18.588799 26.102909
v -13.720707 14.469835 6.656489
v -18.395824 14.546449 9.579891
v 6.849974 18.579105 -12.172196
v 7.557367 18.676702 -18.071413
v 8.592502 14.475883 -8.254053
v 9.965913 14.540621 -12.613939
v -11.845201 18.570955 15.908802
v -15.343091 18.685146 22.271084
v -12.534341 14.472006 1.332526
v -16.729414 14.544492 2.101205
v 7.520581 18.582096 -10.943424
v 8.433472 18.673710 -16.466570
v 8.952515 14.463508 -7.194590
v 10.772339 14.553002 -10.237180
v -13.432722 18.574379 11.563394
v -17.491447 18.681602 16.391132
v -9.712731 14.472828 -4.274868
v -12.671533 14.543676 -5.963170
v 8.952477 18.569004 -7.194620
v 10.772377 18.686798 -10.237151
v 8.089410 18.584175 -9.622524
v 9.230203 18.671631 -14.616889
v -13.720532 18.577333 6.656504
v -18.396006 18.678169 9.579881
v -5.110670 14.471847 -10.029495
v -5.904987 14.544659 -14.424267
v 8.592227 18.585293 -8.253973
v 9.966187 18.670507 -12.614020
v -5.518437 1.691779 22.572489
v -1.249973 1.678229 24.392439
v -4.874971 1.665378 21.659697
v 13.832337 1.696523 22.932468
v 18.736982 1.678054 19.835449
v 8.405533 1.665383 23.642599
v 3.630407 1.665383 24.358608
v 3.586193 1.678119 25.455339
v 6.138123 3.000461 -13.405393
v 5.085359 2.998165 -14.295289
v 6.555126 2.980284 -10.647021
v 7.094147 2.980283 -9.395519
v 3.752867 2.996982 -14.850202
v 5.944602 2.980284 -11.765519
v 2.213543 2.997238 -14.918624
v 5.241094 2.980284 -12.697322
v 0.590682 2.998669 -14.475606
v 22.895075 14.570501 25.301222
v 17.749350 14.707736 28.579290
v 10.771458 14.735643 31.679247
v 4.837067 14.411586 32.308758
v -1.727238 14.568150 31.793999
v -7.886436 14.568145 29.168224
v 17.392866 31.435112 27.419811
v 22.470964 31.318476 24.184164
v 17.246677 18.816254 27.830091
v 22.308084 18.614601 24.628115
v 22.551136 31.239195 24.398138
v 17.489729 31.440847 27.600115
v -7.969856 18.650291 29.246706
v -7.726805 31.274883 29.016729
v -7.071595 31.315426 27.994711
v -1.475243 18.757006 31.214502
v 4.822518 18.634645 31.432884
v 5.065570 31.259237 31.202908
v -1.232192 31.381598 30.984528
v 13.281343 1.665389 21.972597
v 18.072145 1.665395 18.946938
v 8.711257 1.691049 24.686676
v -0.858326 1.665378 23.372066
v 2.357978 2.980284 -13.835320
v 1.067844 2.980284 -13.483149
v 3.469254 2.980284 -13.785922
v 4.423137 2.980284 -13.388692
v 6.962841 3.003110 -12.312955
v 7.633497 3.005376 -11.084176
v 8.202361 3.006962 -9.763273
v -1.727238 14.568150 31.793999
v -7.886436 14.568145 29.168224
v -1.174727 31.311789 30.696138
v 5.062834 31.254927 30.997936
v 10.489783 18.846138 30.831745
v 10.732835 31.470732 30.601768
v 10.679419 31.464941 30.402159
vn 0.6095 -0.0000 0.7928
vn 0.8036 -0.0000 -0.5951
vn -0.9184 -0.0000 0.3956
vn -0.9184 -0.0070 0.3956
vn -0.9184 -0.0069 0.3956
vn 0.4763 0.0000 0.8793
vn 0.9393 -0.0000 -0.3432
vn -0.9386 0.0000 0.3449
vn -0.5340 -0.0000 -0.8455
vn 0.2633 0.0000 0.9647
vn 0.2633 -0.0046 0.9647
vn 0.9983 0.0000 -0.0586
vn -0.9469 0.0000 0.3214
vn -0.3240 -0.0000 -0.9460
vn -0.0444 0.0000 0.9990
vn -0.0444 -0.0063 0.9990
vn -0.0444 -0.0064 0.9990
vn 0.9761 -0.0000 0.2175
vn -0.1140 -0.0406 -0.9927
vn -0.3844 -0.0000 0.9232
vn 0.8933 -0.0000 0.4495
vn 0.1793 -0.0402 -0.9830
vn -0.6455 -0.0000 0.7637
vn 0.7810 -0.0000 0.6246
vn 0.3922 0.0000 -0.9199
vn -0.7981 0.0000 0.6026
vn 0.6929 -0.0000 0.7211
vn 0.6138 0.0000 -0.7894
vn -0.8778 -0.0000 0.4791
vn -0.6095 0.0000 -0.7928
vn -0.6550 -0.0000 0.7556
vn 0.9184 0.0000 -0.3956
vn -0.4763 0.0000 -0.8793
vn -0.9393 -0.0000 0.3432
vn 0.9386 0.0000 -0.3449
vn -0.2633 0.0000 -0.9647
vn -0.9913 0.0000 0.1316
vn 0.9469 0.0000 -0.3214
vn 0.0444 0.0000 -0.9990
vn -0.9761 0.0000 -0.2175
vn 0.3844 0.0000 -0.9232
vn -0.8933 0.0000 -0.4495
vn 0.6455 0.0000 -0.7637
vn -0.7810 0.0000 -0.6246
vn 0.7981 0.0000 -0.6026
vn -0.6929 0.0000 -0.7211
vn 0.8778 0.0000 -0.4791
vn 0.0244 0.9997 0.0061
vn 0.0232 0.9996 0.0149
vn 0.0248 0.9996 0.0118
vn -0.0088 -0.9998 -0.0151
vn -0.0119 -0.9998 -0.0147
vn -0.0135 -0.9998 -0.0146
vn -0.0111 -0.9998 -0.0151
vn 0.0037 -0.9996 0.0276
vn 0.0034 -0.9996 0.0276
vn -0.0015 -0.9996 0.0281
vn 0.0188 0.9997 0.0186
vn 0.0213 0.9996 0.0176
vn -0.0054 -0.9999 -0.0150
vn -0.0077 -0.9999 -0.0153
vn 0.0112 -0.9994 0.0339
vn 0.0111 -0.9994 0.0334
vn 0.0112 -0.9994 0.0335
vn 0.0157 0.9997 0.0195
vn 0.0178 0.9997 0.0193
vn 0.0002 -0.9999 -0.0144
vn -0.0038 -0.9999 -0.0149
vn 0.0308 -0.9995 0.0069
vn 0.0116 0.9997 0.0199
vn 0.0146 0.9997 0.0200
vn 0.0007 -0.9999 -0.0141
vn 0.0031 -0.9999 -0.0147
vn -0.0107 0.9997 -0.0209
vn -0.0087 0.9996 -0.0263
vn -0.0064 0.9995 -0.0319
vn -0.0146 -0.9999 0.0041
vn -0.0153 -0.9999 0.0040
vn -0.0151 -0.9999 0.0034
vn 0.0063 0.9998 0.0201
vn 0.0103 0.9997 0.0204
vn 0.0061 -0.9999 -0.0134
vn 0.0101 -0.9999 -0.0128
vn -0.0128 0.9992 -0.0376
vn -0.0054 -0.9999 0.0124
vn -0.0054 -0.9999 0.0126
vn -0.0055 -0.9999 0.0140
vn -0.0005 0.9998 0.0204
vn 0.0051 0.9998 0.0200
vn 0.0112 -0.9999 -0.0123
vn 0.0143 -0.9998 -0.0117
vn -0.0226 0.9995 -0.0199
vn -0.0345 -0.9993 0.0151
vn -0.0022 0.9998 0.0219
vn -0.0063 0.9998 0.0167
vn 0.0156 -0.9998 -0.0110
vn 0.0176 -0.9998 -0.0105
vn 0.0028 0.9998 -0.0186
vn 0.0032 0.9999 -0.0155
vn 0.0079 0.9998 -0.0179
vn 0.0063 0.9999 -0.0142
vn -0.0007 -0.9997 0.0247
vn -0.0084 0.9998 0.0184
vn -0.0133 0.9998 0.0170
vn 0.0188 -0.9998 -0.0098
vn 0.0202 -0.9998 -0.0093
vn 0.0096 0.9998 -0.0148
vn -0.0041 0.9999 -0.0138
vn -0.0148 -0.9999 0.0048
vn -0.0153 -0.9998 0.0107
vn -0.0145 -0.9999 0.0051
vn -0.0169 -0.9999 0.0024
vn 0.8026 -0.0029 -0.5965
vn 0.8065 0.0000 -0.5912
vn -0.0151 0.9998 0.0160
vn -0.0188 0.9997 0.0155
vn 0.0210 -0.9997 -0.0085
vn 0.0217 -0.9997 -0.0083
vn -0.0049 0.9999 -0.0136
vn -0.0171 -0.9999 0.0007
vn -0.0186 -0.9998 -0.0036
vn -0.0205 0.9997 0.0140
vn -0.0233 0.9996 0.0137
vn 0.0181 -0.9998 -0.0079
vn 0.0253 -0.9996 -0.0079
vn 0.0099 0.9999 -0.0100
vn 0.0151 0.9999 -0.0049
vn 0.0188 0.9998 -0.0071
vn 0.0183 0.9998 -0.0030
vn -0.0184 -0.9998 -0.0046
vn -0.0189 -0.9998 -0.0090
vn -0.0246 0.9996 0.0123
vn -0.0266 0.9996 0.0121
vn 0.0253 -0.9996 -0.0094
vn 0.0193 -0.9998 -0.0042
vn 0.0194 0.9998 -0.0064
vn 0.0217 0.9998 -0.0030
vn -0.0176 -0.9998 -0.0113
vn 0.8582 0.0000 0.5133
vn -0.0273 0.9996 0.0113
vn -0.0286 0.9995 0.0110
vn 0.0224 0.9997 -0.0010
vn 0.0243 0.9997 0.0048
vn -0.0143 -0.9998 -0.0142
vn -0.0163 -0.9998 -0.0135
vn -0.0295 0.9995 0.0106
vn -0.0334 0.9994 0.0103
vn -0.0355 0.9993 0.0121
vn -0.0254 0.9997 0.0054
vn -0.0109 0.9997 -0.0207
vn -0.0030 0.9997 -0.0256
vn -0.0106 0.9995 -0.0302
vn -0.0068 0.9996 -0.0276
vn -0.0032 0.9997 -0.0251
vn 0.0025 0.9998 -0.0188
vn 0.0041 0.9998 -0.0169
vn 0.0078 0.9999 -0.0105
vn 0.0127 0.9999 -0.0082
vn 0.0189 0.9998 -0.0065
vn 0.0209 0.9998 -0.0038
vn 0.0237 0.9997 0.0024
vn 0.0245 0.9997 0.0092
vn 0.0249 0.9996 0.0129
vn 0.0201 0.9996 0.0181
vn 0.0170 0.9997 0.0191
vn -0.0257 0.9996 0.0115
vn -0.0279 0.9996 0.0105
vn -0.0205 0.9997 0.0141
vn -0.0201 0.9997 0.0136
vn -0.3921 0.0151 0.9198
vn -0.8174 -0.0118 -0.5759
vn 0.5339 0.0159 0.8454
vn -0.1483 -0.0175 -0.9888
vn -0.2146 0.0165 0.9766
vn -0.0148 -0.9997 0.0189
vn -0.0145 -0.9997 0.0186
vn -0.0149 -0.9998 0.0129
vn -0.0146 -0.9999 0.0055
vn -0.0161 -0.9999 0.0031
vn -0.0180 -0.9998 -0.0018
vn -0.0186 -0.9998 -0.0070
vn -0.0174 -0.9998 -0.0113
vn -0.0152 -0.9998 -0.0137
vn -0.0129 -0.9998 -0.0145
vn -0.0102 -0.9998 -0.0150
vn -0.0088 -0.9998 -0.0152
vn 0.6455 0.0157 -0.7636
vn -0.9183 -0.0139 0.3955
vn 0.3844 0.0151 -0.9230
vn -0.8777 -0.0145 0.4791
vn 0.0444 0.0127 -0.9989
vn -0.7980 -0.0152 0.6025
vn -0.2633 0.0092 -0.9647
vn 0.0153 -0.9998 -0.0098
vn 0.0219 -0.9997 -0.0077
vn 0.0153 -0.9998 -0.0103
vn 0.8007 -0.0043 -0.5991
vn 0.8007 0.0000 -0.5991
vn 0.5230 0.0000 0.8523
vn 0.0212 0.9998 0.0007
vn 0.0211 0.9998 0.0010
vn 0.0207 0.9998 -0.0051
vn 0.0237 0.9997 0.0010
vn 0.0239 0.9996 0.0119
vn 0.0213 0.9996 0.0169
vn 0.0200 0.9996 0.0183
vn 0.0151 0.9997 0.0201
vn 0.0108 0.9997 0.0211
vn 0.0055 0.9998 0.0217
vn 0.0021 0.9998 0.0207
vn -0.0011 0.9998 0.0200
vn -0.0078 0.9998 0.0197
vn -0.0140 0.9997 0.0180
vn -0.0195 0.9997 0.0160
vn -0.0252 0.9996 0.0129
vn -0.0277 0.9996 0.0114
vn -0.0263 0.9996 0.0076
vn -0.0242 0.9997 0.0045
vn -0.0068 -0.9996 0.0286
vn 0.0067 -0.9997 0.0251
vn 0.0555 -0.9984 0.0074
vn -0.0249 -0.9997 0.0069
vn -0.0056 -0.9999 0.0157
vn -0.0452 -0.9990 -0.0039
vn 0.0043 -0.9992 0.0388
vn -0.0162 -0.9999 0.0058
vn -0.0167 -0.9999 0.0041
vn -0.0180 -0.9998 -0.0008
vn -0.0194 -0.9998 -0.0091
vn -0.0168 -0.9998 -0.0133
vn -0.0152 -0.9998 -0.0139
vn -0.0115 -0.9998 -0.0154
vn -0.0081 -0.9998 -0.0155
vn -0.0041 -0.9999 -0.0152
vn -0.0016 -0.9999 -0.0157
vn 0.0033 -0.9999 -0.0152
vn 0.0058 -0.9999 -0.0146
vn 0.0105 -0.9999 -0.0134
vn 0.0148 -0.9998 -0.0121
vn 0.0192 -0.9998 -0.0098
vn 0.0210 -0.9997 -0.0087
vn 0.0214 -0.9997 -0.0082
vn 0.0184 -0.9998 -0.0035
vn -0.5374 -0.0050 -0.8433
vn 0.5348 0.0051 0.8450
vn -0.8420 0.0064 -0.5395
vn -0.0343 0.0189 0.9992
vn 0.0092 -0.9998 0.0176
vn 0.0082 -0.9997 0.0242
vn 0.0085 -0.9998 0.0178
vn 0.0032 -0.9998 0.0183
vn 0.0076 -0.9997 0.0250
vn 0.0007 -0.9999 0.0145
vn -0.0056 -0.9999 0.0138
vn -0.0084 -0.9998 0.0155
vn -0.0084 -0.9998 0.0158
vn 0.2146 -0.0165 -0.9766
vn 0.3240 0.0172 0.9459
vn -0.5339 -0.0159 -0.8454
vn 0.3921 -0.0151 -0.9198
vn 0.1483 0.0175 0.9888
vn -0.3240 -0.0172 -0.9459
vn 0.8007 -0.0086 -0.5990
vn -0.0047 -0.9999 -0.0156
vn -0.0021 -0.9999 -0.0156
vn -0.0020 -0.9999 -0.0156
vn 0.0036 -0.9999 -0.0150
vn 0.0035 -0.9999 -0.0150
vn 0.0065 -0.9999 -0.0139
vn 0.0090 -0.9999 -0.0134
vn 0.0118 -0.9999 -0.0122
vn 0.0135 -0.9998 -0.0114
vn 0.0171 -0.9998 -0.0098
vn 0.0170 -0.9998 -0.0098
vn 0.0196 -0.9998 -0.0087
vn 0.0195 -0.9998 -0.0087
vn 0.0206 -0.9998 -0.0083
vn 0.2633 -0.0092 0.9647
vn 0.7980 0.0152 -0.6025
vn 0.3151 -0.0085 0.9490
vn -0.9013 -0.0142 0.4331
vn -0.0444 -0.0127 0.9989
vn 0.8777 0.0145 -0.4791
vn -0.3844 -0.0151 0.9230
vn 0.9184 0.0139 -0.3955
vn -0.6455 -0.0157 0.7636
vn 0.0000 0.0000 1.0000
vn -0.0201 0.9998 -0.0007
vn 0.0135 0.9997 0.0197
vn 0.0088 0.9998 0.0203
vn 0.0027 0.9998 0.0205
vn -0.0085 0.9998 0.0203
vn -0.0152 0.9997 0.0164
vn -0.0203 0.9997 0.0138
vn -0.0224 0.9997 0.0130
vn -0.5178 -0.0139 0.8554
vn 0.0481 -0.0191 -0.9987
vn -0.3410 0.0638 0.9379
vn -0.0524 0.1717 0.9838
vn 0.0939 0.2048 0.9743
vn 0.3976 0.2114 0.8929
vn 0.5286 0.2140 0.8215
vn 0.8277 0.0132 -0.5610
vn 0.1148 0.9846 0.1321
vn -0.0077 0.9996 -0.0273
vn -0.0394 0.9990 -0.0195
vn 0.0202 0.9890 -0.1463
vn 0.0001 0.9998 -0.0223
vn 0.4164 -0.0246 -0.9089
vn -0.4060 -0.0088 -0.9138
vn 0.4060 0.0088 0.9138
vn 0.9331 -0.0245 -0.3587
vn -0.2902 0.0230 0.9567
vn -0.1049 -0.0161 -0.9944
vn 0.1049 0.0161 0.9944
usemtl body-color.001
s 1
f 1//1 2//1 3//1 4//1
f 5//2 6//2 7//2 8//2
f 9//3 10//4 11//5 12//3
f 4//6 3//6 13//6 14//6
f 8//7 7//7 15//7 16//7
f 12//8 11//8 17//8 18//8
f 19//9 20//9 21//9 22//9
f 14//10 13//11 23//11 24//10
f 16//12 15//12 25//12 26//12
f 18//13 17//13 27//13 28//13
f 22//14 21//14 29//14 30//14
f 24//15 23//16 31//17 32//15
f 26//18 25//18 33//18 34//18
f 30//19 29//19 35//19 36//19
f 32//20 31//20 37//20 38//20
f 34//21 33//21 39//21 40//21
f 36//22 35//22 41//22 42//22
f 38//23 37//23 43//23 44//23
f 40//24 39//24 45//24 46//24
f 42//25 41//25 47//25 48//25
f 44//26 43//26 49//26 50//26
f 46//27 45//27 2//27 1//27
f 48//28 47//28 6//28 5//28
f 50//29 49//29 10//29 9//29
f 51//30 52//30 53//30 54//30
f 55//31 56//31 57//31 58//31
f 59//32 60//32 61//32 62//32
f 52//33 63//33 64//33 53//33
f 56//34 65//34 66//34 57//34
f 60//35 67//35 68//35 61//35
f 63//36 69//36 70//36 64//36
f 65//37 71//37 72//37 66//37
f 67//38 73//38 74//38 68//38
f 69//39 75//39 76//39 70//39
f 71//40 77//40 78//40 72//40
f 75//41 79//41 80//41 76//41
f 77//42 81//42 82//42 78//42
f 79//43 83//43 84//43 80//43
f 81//44 85//44 86//44 82//44
f 83//45 87//45 88//45 84//45
f 85//46 51//46 54//46 86//46
f 87//47 59//47 62//47 88//47
f 89//48 90//49 91//49 92//50
f 93//51 94//52 95//53 96//54
f 97//55 98//55 99//56 100//57
f 90//49 101//58 102//59 91//49
f 103//60 93//51 96//54 104//61
f 105//62 97//62 100//63 106//64
f 101//58 107//65 108//66 102//59
f 109//67 103//60 104//61 110//68
f 111//69 105//69 106//69 112//69
f 107//65 113//70 114//71 108//66
f 115//72 109//67 110//68 116//73
f 117//74 118//75 119//76 120//76
f 121//77 111//77 112//78 122//79
f 113//70 123//80 124//81 114//71
f 125//82 115//72 116//73 126//83
f 118//84 127//84 128//84 119//84
f 129//85 121//85 122//86 130//87
f 123//80 131//88 132//89 124//81
f 133//90 125//82 126//83 134//91
f 127//92 135//92 136//92 128//92
f 137//93 129//93 130//93 138//93
f 131//88 139//94 140//95 132//89
f 141//96 133//90 134//91 142//97
f 135//98 143//99 144//100 136//101
f 145//102 137//102 138//102 146//102
f 139//94 147//103 148//104 140//95
f 149//105 141//96 142//97 150//106
f 143//99 151//107 152//108 144//100
f 153//109 145//110 146//111 154//112
f 98//113 117//2 120//114 99//114
f 147//103 155//115 156//116 148//104
f 157//117 149//105 150//106 158//118
f 151//107 159//119 160//119 152//108
f 161//120 153//109 154//112 162//121
f 155//115 163//122 164//123 156//116
f 165//124 157//117 158//118 166//125
f 159//126 167//127 168//128 160//129
f 169//130 161//120 162//121 170//131
f 163//122 171//132 172//133 164//123
f 173//134 165//124 166//125 174//135
f 167//127 175//136 176//137 168//128
f 177//138 169//130 170//131 178//138
f 179//139 173//139 174//139 180//139
f 171//132 181//140 182//141 172//133
f 175//136 183//142 184//143 176//137
f 185//144 177//138 178//138 186//145
f 181//140 187//146 188//147 182//141
f 183//142 89//48 92//50 184//143
f 94//52 185//144 186//145 95//53
f 187//148 179//148 180//149 188//147
f 118//75 117//74 19//150 22//150
f 127//151 118//152 22//152 30//153
f 135//154 127//151 30//153 36//154
f 143//99 135//98 36//155 42//156
f 151//107 143//99 42//156 48//157
f 159//126 151//107 48//157 5//158
f 167//127 159//126 5//158 8//159
f 175//136 167//127 8//159 16//160
f 183//142 175//136 16//160 26//161
f 89//48 183//142 26//161 34//162
f 90//49 89//48 34//162 40//163
f 101//58 90//49 40//163 46//164
f 1//165 107//65 101//58 46//164
f 181//140 171//132 9//166 12//167
f 187//146 181//140 12//167 18//168
f 179//169 187//146 18//168 28//169
f 121//170 129//170 189//170 190//170
f 129//171 47//171 191//171 189//171
f 98//172 97//172 192//172 193//172
f 35//173 29//173 194//173 195//173
f 111//174 121//174 190//174 196//174
f 129//175 137//176 6//177 47//175
f 137//176 145//110 7//178 6//177
f 145//110 153//109 15//179 7//178
f 153//109 161//120 25//180 15//179
f 161//120 169//130 33//181 25//180
f 169//130 177//138 39//182 33//181
f 177//138 185//144 45//183 39//182
f 185//144 94//52 2//184 45//183
f 94//52 93//51 3//185 2//184
f 93//51 103//60 13//186 3//185
f 125//187 133//187 197//187 198//187
f 11//5 10//4 199//188 200//188
f 115//189 125//189 198//189 201//189
f 10//190 49//190 202//190 199//190
f 109//191 115//191 201//191 203//191
f 49//192 43//192 204//192 202//192
f 103//193 109//193 203//193 205//193
f 157//117 165//124 17//194 11//195
f 165//124 173//134 27//196 17//194
f 117//2 98//113 20//197 19//198
f 173//199 179//199 28//199 27//199
f 160//129 168//128 56//200 55//201
f 168//128 176//137 65//202 56//200
f 176//137 184//143 71//203 65//202
f 184//143 92//50 77//204 71//203
f 92//50 91//49 81//205 77//204
f 91//49 102//59 85//206 81//205
f 102//59 108//66 51//207 85//206
f 108//66 114//71 52//208 51//207
f 114//71 124//81 63//209 52//208
f 124//81 132//89 69//210 63//209
f 132//89 140//95 75//211 69//210
f 140//95 148//104 79//212 75//211
f 148//104 156//116 83//213 79//212
f 156//116 164//123 87//214 83//213
f 164//123 172//133 59//215 87//214
f 172//133 182//141 60//216 59//215
f 182//141 188//147 67//217 60//216
f 188//147 180//149 73//218 67//217
f 100//57 99//56 206//219 207//219
f 106//64 100//63 207//220 208//220
f 112//221 106//221 208//221 209//221
f 122//79 112//78 209//222 210//222
f 130//87 122//86 210//223 211//223
f 138//224 130//224 211//224 58//224
f 146//225 138//225 58//225 57//225
f 154//112 146//111 57//226 66//227
f 162//121 154//112 66//227 72//228
f 170//131 162//121 72//228 78//229
f 178//138 170//131 78//229 82//230
f 186//145 178//138 82//230 86//231
f 95//53 186//145 86//231 54//232
f 96//54 95//53 54//232 53//233
f 104//61 96//54 53//233 64//234
f 110//68 104//61 64//234 70//235
f 116//73 110//68 70//235 76//236
f 126//83 116//73 76//236 80//237
f 134//91 126//83 80//237 84//238
f 142//97 134//91 84//238 88//239
f 150//106 142//97 88//239 62//240
f 158//118 150//106 62//240 61//241
f 166//125 158//118 61//241 68//242
f 174//135 166//125 68//242 74//243
f 180//199 174//199 74//199 73//199
f 120//244 119//244 212//244 213//244
f 214//245 215//245 216//245 217//245
f 152//246 218//246 219//246 220//246
f 221//247 222//247 223//247 224//247
f 193//248 192//249 225//250 226//248
f 192//249 227//251 194//252 225//250
f 227//251 196//253 195//253 194//252
f 196//253 190//254 228//255 195//253
f 190//254 189//256 191//256 228//255
f 41//257 35//257 195//257 228//257
f 97//258 105//258 227//258 192//258
f 21//259 20//259 226//259 225//259
f 47//260 41//260 228//260 191//260
f 105//261 111//261 196//261 227//261
f 29//262 21//262 225//262 194//262
f 20//197 98//113 193//263 226//263
f 205//264 203//265 229//266 230//264
f 203//265 201//267 231//268 229//266
f 201//267 198//269 232//270 231//268
f 198//269 197//271 204//272 232//270
f 197//271 233//273 202//274 204//272
f 233//273 234//275 199//276 202//274
f 234//275 235//277 200//277 199//276
f 23//11 13//11 230//278 229//278
f 133//279 141//279 233//279 197//279
f 157//280 11//280 200//280 235//280
f 13//281 103//281 205//281 230//281
f 31//17 23//16 229//282 231//282
f 141//283 149//283 234//283 233//283
f 37//284 31//284 231//284 232//284
f 149//285 157//285 235//285 234//285
f 43//286 37//286 232//286 204//286
f 211//287 210//287 236//287 237//287
f 218//288 152//288 160//288 55//288
f 4//289 113//70 107//65 1//165
f 14//290 123//80 113//70 4//289
f 24//291 131//88 123//80 14//290
f 32//292 139//94 131//88 24//291
f 38//293 147//103 139//94 32//292
f 44//294 155//115 147//103 38//293
f 50//295 163//122 155//115 44//294
f 9//166 171//132 163//122 50//295
f 55//296 58//296 237//296 218//296
f 136//297 144//297 238//297 239//297
f 237//298 236//298 221//298 218//298
f 222//299 221//299 236//299 209//299
f 209//300 208//300 240//300 222//300
f 208//301 207//301 214//301 240//301
f 207//302 206//302 215//302 214//302
f 120//303 215//303 206//303 99//303
f 217//304 216//304 213//304 212//304
f 241//305 217//305 212//305 242//305
f 223//306 241//306 242//306 239//306
f 238//307 224//307 223//307 239//307
f 220//308 219//308 224//308 238//308
f 144//309 152//309 220//309 238//309
f 119//310 128//310 242//310 212//310
f 240//311 214//311 217//311 241//311
f 215//312 120//312 213//312 216//312
f 218//313 221//313 224//313 219//313
f 128//314 136//314 239//314 242//314
f 222//315 240//315 241//315 223//315
